<svg width="24" height="24" viewBox="0 0 24 24" fill="none" xmlns="http://www.w3.org/2000/svg">
<circle cx="12" cy="12" r="11" stroke="black" stroke-width="2"/>
<g clip-path="url(#clip0_164_908)">
<path d="M12.0148 5.35715C8.26396 5.35715 5.35718 8.0984 5.35718 11.801C5.35718 13.7376 6.15298 15.4112 7.44834 16.5672C7.672 16.7684 7.62593 16.8849 7.66396 18.127C7.66696 18.214 7.69119 18.2989 7.73456 18.3744C7.77792 18.4499 7.83909 18.5136 7.91274 18.56C7.98639 18.6064 8.07027 18.6341 8.15708 18.6407C8.24388 18.6472 8.33097 18.6324 8.41075 18.5976C9.82798 17.9735 9.8462 17.9242 10.0865 17.9896C14.1924 19.1196 18.6429 16.492 18.6429 11.801C18.6429 8.0984 15.7658 5.35715 12.0148 5.35715ZM16.0123 10.316L14.0569 13.4116C13.9831 13.528 13.886 13.6279 13.7717 13.705C13.6575 13.7822 13.5285 13.8349 13.393 13.8599C13.2574 13.8848 13.1181 13.8815 12.9839 13.8502C12.8497 13.8188 12.7234 13.7601 12.6129 13.6776L11.0572 12.5132C10.9876 12.4611 10.903 12.4329 10.8161 12.4329C10.7292 12.4329 10.6446 12.4611 10.575 12.5132L8.47584 14.1054C8.19566 14.3178 7.8287 13.9821 8.01753 13.6856L9.97289 10.59C10.0467 10.4736 10.1438 10.3736 10.258 10.2965C10.3723 10.2193 10.5012 10.1666 10.6368 10.1416C10.7724 10.1167 10.9117 10.12 11.0459 10.1514C11.1801 10.1827 11.3065 10.2415 11.4169 10.324L12.9721 11.4881C13.0416 11.5403 13.1262 11.5685 13.2132 11.5685C13.3001 11.5685 13.3847 11.5403 13.4542 11.4881L15.5545 9.89759C15.8341 9.68384 16.2011 10.0192 16.0123 10.316Z" fill="black"/>
</g>
<defs>
<clipPath id="clip0_164_908">
<rect width="13.7143" height="13.7143" fill="white" transform="translate(5.14288 5.14285)"/>
</clipPath>
</defs>
</svg>
