<svg width="24" height="24" viewBox="0 0 24 24" fill="none" xmlns="http://www.w3.org/2000/svg">
<path fill-rule="evenodd" clip-rule="evenodd" d="M12 22C17.5228 22 22 17.5228 22 12C22 6.47715 17.5228 2 12 2C6.47715 2 2 6.47715 2 12C2 17.5228 6.47715 22 12 22ZM18.6743 9.73849C19.0821 9.3661 19.1109 8.73358 18.7385 8.32573C18.3661 7.91788 17.7336 7.88913 17.3257 8.26151L10.3215 14.6567L6.6611 11.4315C6.24672 11.0664 5.61482 11.1063 5.2497 11.5207C4.88459 11.9351 4.92452 12.567 5.3389 12.9321L9.67223 16.7503C10.0552 17.0877 10.6307 17.0826 11.0076 16.7385L18.6743 9.73849Z" fill="#00C2FF"/>
</svg>
