<svg width="20" height="20" viewBox="0 0 20 20" fill="none" xmlns="http://www.w3.org/2000/svg">
<path fill-rule="evenodd" clip-rule="evenodd" d="M9.99805 20C15.5208 20 19.998 15.5228 19.998 10C19.998 4.47715 15.5208 0 9.99805 0C4.4752 0 -0.00195312 4.47715 -0.00195312 10C-0.00195312 15.5228 4.4752 20 9.99805 20ZM16.6723 7.73849C17.0801 7.3661 17.1089 6.73358 16.7365 6.32573C16.3641 5.91788 15.7316 5.88913 15.3237 6.26151L8.31955 12.6567L4.65915 9.4315C4.24477 9.0664 3.61287 9.1063 3.24775 9.5207C2.88264 9.9351 2.92257 10.567 3.33695 10.9321L7.67028 14.7503C8.05325 15.0877 8.62875 15.0826 9.00565 14.7385L16.6723 7.73849Z" fill="#00C2FF"/>
</svg>
