<svg width="80" height="80" viewBox="0 0 80 80" fill="none" xmlns="http://www.w3.org/2000/svg">
<path fill-rule="evenodd" clip-rule="evenodd" d="M74 40C74 58.7777 58.7777 74 40 74C21.2223 74 6 58.7777 6 40C6 21.2223 21.2223 6 40 6C58.7777 6 74 21.2223 74 40ZM80 40C80 62.0914 62.0914 80 40 80C17.9086 80 0 62.0914 0 40C0 17.9086 17.9086 0 40 0C62.0914 0 80 17.9086 80 40ZM36.9998 20.5999C36.9998 18.9431 38.343 17.5999 39.9998 17.5999C41.6567 17.5999 42.9998 18.9431 42.9998 20.5999V46.5999C42.9998 48.2568 41.6567 49.5999 39.9998 49.5999C38.343 49.5999 36.9998 48.2568 36.9998 46.5999V20.5999ZM36.9998 58.5999C36.9998 56.9431 38.343 55.5999 39.9998 55.5999C41.6567 55.5999 42.9998 56.9431 42.9998 58.5999C42.9998 60.2568 41.6567 61.5999 39.9998 61.5999C38.343 61.5999 36.9998 60.2568 36.9998 58.5999Z" fill="#FF005C"/>
</svg>
