<svg width="128" height="47" viewBox="0 0 128 47" fill="none" xmlns="http://www.w3.org/2000/svg">
<path d="M17.3684 40.7557L16.8381 47H0.994376V6.24429H0L0.662917 0H7.29209V40.7557H17.3684Z" fill="#00C2FF"/>
<path d="M30.3103 47V6.24429H29.316L29.9789 0H36.6081V47H30.3103Z" fill="#00C2FF"/>
<path d="M50.4982 47V6.24429H49.5039L50.1668 0H56.796V13.0929L62.5633 0H69.524L61.1712 18.9343L70.1869 47H63.2263L56.796 26.9914V47H50.4982Z" fill="#00C2FF"/>
<path d="M97.1852 40.7557L96.6549 47H82.137V6.24429H81.1426L81.8055 0H97.1852L96.5223 6.24429H88.4347V20.3443H95.8594L95.1965 26.5886H88.4347V40.7557H97.1852Z" fill="#00C2FF"/>
<path d="M109.77 6.24429V0H128V6.24429H122.034V47H115.736V6.24429H109.77Z" fill="#00C2FF"/>
</svg>
