<svg width="24" height="24" viewBox="0 0 24 24" fill="none" xmlns="http://www.w3.org/2000/svg">
<path fill-rule="evenodd" clip-rule="evenodd" d="M5 8C6.30622 8 7.41745 7.1652 7.82929 6.00001H7.89988L17.5 6C18.8807 6 20 7.11929 20 8.5C20 9.88071 18.8807 11 17.5 11H14.8293C14.4175 9.83481 13.3062 9 12 9C10.6938 9 9.58254 9.83481 9.17071 11H6.5C4.01472 11 2 13.0147 2 15.5C2 17.9853 4.01472 20 6.5 20H18.5858L18.2929 20.2929C17.9024 20.6834 17.9024 21.3166 18.2929 21.7071C18.6834 22.0976 19.3166 22.0976 19.7071 21.7071L21.7071 19.7071C22.0976 19.3166 22.0976 18.6834 21.7071 18.2929L19.7071 16.2929C19.3166 15.9024 18.6834 15.9024 18.2929 16.2929C17.9024 16.6834 17.9024 17.3166 18.2929 17.7071L18.5858 18H6.5C5.11929 18 4 16.8807 4 15.5C4 14.1193 5.11929 13 6.5 13H9.17071C9.58254 14.1652 10.6938 15 12 15C13.3062 15 14.4175 14.1652 14.8293 13H17.5C19.9853 13 22 10.9853 22 8.5C22 6.01472 19.9853 4 17.5 4L7.89988 4.00001H7.8293C7.41746 2.83481 6.30622 2 5 2C3.34315 2 2 3.34315 2 5C2 6.65685 3.34315 8 5 8ZM13 12C13 12.5523 12.5523 13 12 13C11.4477 13 11 12.5523 11 12C11 11.4477 11.4477 11 12 11C12.5523 11 13 11.4477 13 12Z" fill="black"/>
</svg>
