<svg width="24" height="24" viewBox="0 0 24 24" fill="none" xmlns="http://www.w3.org/2000/svg">
<path fill-rule="evenodd" clip-rule="evenodd" d="M4 5C4 4.44772 4.44772 4 5 4H13.6C14.1523 4 14.6 4.44771 14.6 5C14.6 5.55228 15.0477 6 15.6 6C16.1523 6 16.6 5.55228 16.6 5C16.6 4.44772 17.0477 4 17.6 4H19C19.5523 4 20 4.44772 20 5V19C20 19.5523 19.5523 20 19 20H17.6C17.0477 20 16.6 19.5523 16.6 19C16.6 18.4477 16.1523 18 15.6 18C15.0477 18 14.6 18.4477 14.6 19C14.6 19.5523 14.1523 20 13.6 20H5C4.44771 20 4 19.5523 4 19V5ZM13.6 2C14.3684 2 15.0692 2.28885 15.6 2.7639C16.1308 2.28885 16.8316 2 17.6 2H19C20.6569 2 22 3.34315 22 5V19C22 20.6569 20.6569 22 19 22H17.6C16.8316 22 16.1308 21.7111 15.6 21.2361C15.0692 21.7111 14.3684 22 13.6 22H5C3.34314 22 2 20.6569 2 19V5C2 3.34315 3.34315 2 5 2H13.6ZM8.63903 12.7686C7.78699 11.9065 7.78699 10.5087 8.63903 9.64659C9.49106 8.78447 10.8725 8.78447 11.7245 9.64659L12.0007 9.92602L12.2764 9.64698C13.1283 8.78508 14.5093 8.78508 15.3611 9.64698C16.213 10.5089 16.213 11.9063 15.3611 12.7682L12.2854 15.8803C12.1277 16.0399 11.872 16.0399 11.7143 15.8803L8.63903 12.7686Z" fill="black"/>
</svg>
