<svg width="24" height="24" viewBox="0 0 24 24" fill="none" xmlns="http://www.w3.org/2000/svg">
<path fill-rule="evenodd" clip-rule="evenodd" d="M12 6.03367L10.55 8.79863C10.0765 9.70154 9.19552 10.2736 8.24136 10.4041L5.25732 10.8122L7.33157 12.715C8.07212 13.3943 8.4434 14.4132 8.25595 15.4418L7.73936 18.2763L10.6135 16.8543C11.4852 16.423 12.5148 16.423 13.3865 16.8543L16.2606 18.2763L15.7441 15.4418C15.5566 14.4132 15.9279 13.3943 16.6684 12.715L18.7427 10.8122L15.7586 10.4041C14.8045 10.2736 13.9235 9.70154 13.45 8.79863L12 6.03367ZM12.9628 3.56326C12.569 2.81225 11.431 2.81225 11.0372 3.56326L8.7788 7.86978C8.6224 8.168 8.32009 8.37471 7.97038 8.42253L2.92046 9.11312C2.03981 9.23355 1.68816 10.2521 2.32541 10.8366L5.97957 14.1888C6.23262 14.4209 6.34809 14.7554 6.28836 15.0832L5.42573 19.8165C5.27529 20.6419 6.1959 21.2714 6.98358 20.8817L11.5004 18.6469C11.8132 18.4922 12.1868 18.4922 12.4996 18.6469L17.0164 20.8817C17.8041 21.2714 18.7247 20.6419 18.5743 19.8165L17.7116 15.0832C17.6519 14.7554 17.7674 14.4209 18.0204 14.1888L21.6746 10.8366C22.3118 10.2521 21.9602 9.23355 21.0795 9.11312L16.0296 8.42254C15.6799 8.37471 15.3776 8.168 15.2212 7.86978L12.9628 3.56326Z" fill="black"/>
</svg>
