<svg width="24" height="24" viewBox="0 0 24 24" fill="none" xmlns="http://www.w3.org/2000/svg">
<path fill-rule="evenodd" clip-rule="evenodd" d="M17.8148 9.05269C18.0618 9.29974 18.0618 9.70024 17.8148 9.94729L12.449 15.3129C12.4484 15.3135 12.4479 15.3141 12.4473 15.3147C12.2311 15.5309 11.8974 15.5579 11.6519 15.3958C11.6168 15.3726 11.5836 15.3456 11.5527 15.3147C11.5525 15.3145 11.5523 15.3143 11.5521 15.3141L6.1853 9.94729C5.93825 9.70024 5.93825 9.29974 6.1853 9.05269C6.4323 8.80569 6.8328 8.80569 7.07985 9.05269L12 13.9728L16.9201 9.05269C17.1672 8.80569 17.5677 8.80569 17.8148 9.05269Z" fill="black"/>
</svg>
