<svg width="52" height="52" viewBox="0 0 52 52" fill="none" xmlns="http://www.w3.org/2000/svg">
<g filter="url(#filter0_d_2313_9396)">
<circle cx="26" cy="26" r="18" fill="#00C2FF"/>
</g>
<path fill-rule="evenodd" clip-rule="evenodd" d="M32.7324 19H35C35.5523 19 36 19.4477 36 20C36 20.5523 35.5523 21 35 21H32.7324C32.3866 21.5978 31.7403 22 31 22C30.2597 22 29.6134 21.5978 29.2676 21H17C16.4477 21 16 20.5523 16 20C16 19.4477 16.4477 19 17 19H29.2676C29.6134 18.4022 30.2597 18 31 18C31.7403 18 32.3866 18.4022 32.7324 19ZM17 25C16.4477 25 16 25.4477 16 26C16 26.5523 16.4477 27 17 27H24.2676C24.6134 27.5978 25.2597 28 26 28C26.7403 28 27.3866 27.5978 27.7324 27H35C35.5523 27 36 26.5523 36 26C36 25.4477 35.5523 25 35 25H27.7324C27.3866 24.4022 26.7403 24 26 24C25.2597 24 24.6134 24.4022 24.2676 25H17ZM16 32C16 31.4477 16.4477 31 17 31H19.2676C19.6134 30.4022 20.2597 30 21 30C21.7403 30 22.3866 30.4022 22.7324 31H35C35.5523 31 36 31.4477 36 32C36 32.5523 35.5523 33 35 33H22.7324C22.3866 33.5978 21.7403 34 21 34C20.2597 34 19.6134 33.5978 19.2676 33H17C16.4477 33 16 32.5523 16 32Z" fill="white"/>
<defs>
<filter id="filter0_d_2313_9396" x="0" y="0" width="52" height="52" filterUnits="userSpaceOnUse" color-interpolation-filters="sRGB">
<feFlood flood-opacity="0" result="BackgroundImageFix"/>
<feColorMatrix in="SourceAlpha" type="matrix" values="0 0 0 0 0 0 0 0 0 0 0 0 0 0 0 0 0 0 127 0" result="hardAlpha"/>
<feOffset/>
<feGaussianBlur stdDeviation="4"/>
<feComposite in2="hardAlpha" operator="out"/>
<feColorMatrix type="matrix" values="0 0 0 0 0 0 0 0 0 0 0 0 0 0 0 0 0 0 0.16 0"/>
<feBlend mode="normal" in2="BackgroundImageFix" result="effect1_dropShadow_2313_9396"/>
<feBlend mode="normal" in="SourceGraphic" in2="effect1_dropShadow_2313_9396" result="shape"/>
</filter>
</defs>
</svg>
