<svg width="24" height="24" viewBox="0 0 24 24" fill="currentColor" xmlns="http://www.w3.org/2000/svg">
<path fill-rule="evenodd" clip-rule="evenodd" d="M20 20V10.9151L12 4.00305L4 10.9151V20H8V16C8 13.7909 9.79086 12 12 12C14.2091 12 16 13.7909 16 16V20H20ZM22 10.9151V20C22 21.1046 21.1046 22 20 22H16C14.8954 22 14 21.1046 14 20V16C14 14.8954 13.1046 14 12 14C10.8954 14 10 14.8954 10 16V20C10 21.1046 9.10457 22 8 22H4C2.89543 22 2 21.1046 2 20V10.9151C2 10.334 2.25273 9.78163 2.69244 9.40172L10.6924 2.48968C11.4434 1.84084 12.5566 1.84084 13.3076 2.48968L21.3076 9.40172C21.7473 9.78163 22 10.334 22 10.9151Z" fill="currentColor"/>
</svg>
