<svg width="24" height="24" viewBox="0 0 24 24" fill="none" xmlns="http://www.w3.org/2000/svg">
<circle cx="12" cy="12" r="12" fill="#FEE500"/>
<g clip-path="url(#clip0_903_12795)">
<path d="M11.1119 15.5408C11.4002 15.5832 11.6969 15.6052 12 15.6052C14.7614 15.6052 17 13.7722 17 11.5111C17 9.24997 14.7614 7.41699 12 7.41699C9.23856 7.41699 7 9.24997 7 11.5111C7 12.9729 7.93585 14.2557 9.34364 14.9799C9.26703 15.2542 8.85144 16.7446 8.83492 16.8617C8.83492 16.8617 8.82497 16.9496 8.87985 16.9832C8.93472 17.0167 8.99923 16.9907 8.99923 16.9907C9.15656 16.9679 10.8234 15.7519 11.1119 15.5408Z" fill="black"/>
</g>
<defs>
<clipPath id="clip0_903_12795">
<rect width="10" height="10" fill="white" transform="translate(7 7)"/>
</clipPath>
</defs>
</svg>
