<svg width="24" height="24" viewBox="0 0 24 24" fill="currentColor" xmlns="http://www.w3.org/2000/svg">
<path fill-rule="evenodd" clip-rule="evenodd" d="M12.0017 8.26782L9.86913 6.04836C8.52604 4.65055 6.38282 4.65055 5.03973 6.04836C3.65342 7.49116 3.65342 9.86222 5.03973 11.305L11.9997 18.5486L18.9607 11.304C20.3464 9.86174 20.3464 7.4916 18.9607 6.04937C17.6181 4.65213 15.4758 4.65213 14.1333 6.04937L12.0017 8.26782ZM10.6161 4.04988C8.48592 2.46915 5.50893 2.67341 3.59757 4.66266C1.46748 6.87955 1.46748 10.4738 3.59757 12.6907L11.2858 20.6922C11.6801 21.1026 12.3193 21.1026 12.7136 20.6922L20.4028 12.6897C22.5324 10.4733 22.5324 6.87999 20.4028 4.66367C18.4919 2.67484 15.5155 2.47071 13.3858 4.05126C13.1422 4.23205 12.9097 4.43619 12.6911 4.66367L12.0017 5.38119L11.3113 4.66266C11.0926 4.43503 10.8599 4.23077 10.6161 4.04988Z" fill="currentColor"/>
</svg>
