<svg width="55" height="20" viewBox="0 0 55 20" fill="none" xmlns="http://www.w3.org/2000/svg">
<path d="M7.463 17.3429L7.23512 20H0.427271V2.65714H0L0.284847 0H3.13332V17.3429H7.463Z" fill="black"/>
<path d="M13.024 20V2.65714H12.5967L12.8815 0H15.73V20H13.024Z" fill="black"/>
<path d="M21.6985 20V2.65714H21.2712L21.556 0H24.4045V5.57143L26.8827 0H29.8736L26.2845 8.05714L30.1584 20H27.1675L24.4045 11.4857V20H21.6985Z" fill="black"/>
<path d="M41.7593 17.3429L41.5314 20H35.2932V2.65714H34.866L35.1508 0H41.7593L41.4744 2.65714H37.9993V8.65714H41.1896L40.9047 11.3143H37.9993V17.3429H41.7593Z" fill="black"/>
<path d="M47.1667 2.65714V0H55V2.65714H52.4364V20H49.7303V2.65714H47.1667Z" fill="black"/>
</svg>
