<svg width="24" height="24" viewBox="0 0 24 24" fill="currentColor" xmlns="http://www.w3.org/2000/svg">
<path fill-rule="evenodd" clip-rule="evenodd" d="M18 10C18 10.702 17.7472 11.7072 17.2045 12.9247C16.6759 14.1107 15.9363 15.3561 15.123 16.4937C14.3074 17.6345 13.4577 18.6108 12.7363 19.2776C12.4396 19.5517 12.1916 19.7484 12 19.8786C11.8084 19.7484 11.5604 19.5517 11.2637 19.2776C10.5423 18.6108 9.69263 17.6345 8.87695 16.4937C8.06368 15.3561 7.32414 14.1107 6.79551 12.9247C6.25282 11.7072 6 10.702 6 10C6 6.68629 8.68629 4 12 4C15.3137 4 18 6.68629 18 10ZM12.2775 20.0393C12.2775 20.0392 12.2742 20.0378 12.2677 20.0356C12.2708 20.0369 12.2732 20.0379 12.2749 20.0385C12.2767 20.0392 12.2775 20.0394 12.2775 20.0393ZM20 10C20 14.4183 14 22 12 22C10 22 4 14.4183 4 10C4 5.58172 7.58172 2 12 2C16.4183 2 20 5.58172 20 10ZM12 14C14.2091 14 16 12.2091 16 10C16 7.79086 14.2091 6 12 6C9.79086 6 8 7.79086 8 10C8 12.2091 9.79086 14 12 14ZM14 10C14 11.1046 13.1046 12 12 12C10.8954 12 10 11.1046 10 10C10 8.89543 10.8954 8 12 8C13.1046 8 14 8.89543 14 10Z" fill="currentColor"/>
</svg>
