<svg width="current" height="current" fill="currentColor" viewBox="0 0 48 48" xmlns="http://www.w3.org/2000/svg">
<path fill-rule="evenodd" clip-rule="evenodd" d="M34.4069 25.8869C35.4411 23.5606 36 21.5211 36 20C36 13.3726 30.6274 8 24 8C17.3726 8 12 13.3726 12 20C12 21.5211 12.5589 23.5606 13.5931 25.8869C14.6102 28.1746 16.0123 30.5747 17.5217 32.7644C19.0327 34.9565 20.6139 36.8834 21.9637 38.2382C22.6422 38.9192 23.2219 39.4147 23.6722 39.7251C23.8129 39.8221 23.9214 39.8873 24 39.9306C24.0787 39.8873 24.1871 39.8221 24.3278 39.7251C24.7781 39.4147 25.3578 38.9192 26.0363 38.2382C27.3861 36.8834 28.9673 34.9565 30.4783 32.7644C31.9877 30.5747 33.3898 28.1746 34.4069 25.8869ZM24 42C27 42 38 27.732 38 20C38 12.268 31.732 6 24 6C16.268 6 10 12.268 10 20C10 27.732 21 42 24 42Z"/>
</svg>
