<svg width="24" height="24" viewBox="0 0 24 24" fill="currentColor" xmlns="http://www.w3.org/2000/svg">
<path fill-rule="evenodd" clip-rule="evenodd" d="M15 7C15 8.65685 13.6569 10 12 10C10.3432 10 9.00001 8.65685 9.00001 7C9.00001 5.34315 10.3432 4 12 4C13.6569 4 15 5.34315 15 7ZM17 7C17 9.76142 14.7614 12 12 12C9.23858 12 7.00001 9.76142 7.00001 7C7.00001 4.23858 9.23858 2 12 2C14.7614 2 17 4.23858 17 7ZM12.0002 15C15.852 15 18.883 17.2292 19.8588 20H4.14161C5.11737 17.2292 8.14839 15 12.0002 15ZM3.80027 20C3.79608 20 3.79617 19.9992 3.80027 20V20ZM20.2001 22C21.3047 22 22.2249 21.0906 21.9525 20.0201C20.9303 16.002 16.8626 13 12.0002 13C7.13785 13 3.07014 16.002 2.04787 20.0201C1.77553 21.0906 2.6957 22 3.80027 22H20.2001Z" fill="currentColor"/>
</svg>
