<svg width="24" height="24" viewBox="0 0 24 24" fill="none" xmlns="http://www.w3.org/2000/svg">
<path d="M19.8 22.6L17.15 20H6.5C4.96667 20 3.66667 19.4667 2.6 18.4C1.53333 17.3333 1 16.0333 1 14.5C1 13.22 1.39667 12.08 2.19 11.08C2.98333 10.0733 4.00333 9.42999 5.25 9.14999C5.30333 9.01665 5.35333 8.88665 5.4 8.75999C5.46667 8.63332 5.51667 8.49665 5.55 8.34999L1.4 4.19999L2.8 2.79999L21.2 21.2M6.5 18H15.15L7.1 9.94999C7.06667 10.1367 7.04333 10.32 7.03 10.5C7.01 10.6533 7 10.82 7 11H6.5C5.53333 11 4.71 11.3433 4.03 12.03C3.34333 12.71 3 13.5333 3 14.5C3 15.4667 3.34333 16.3 4.03 17C4.71 17.6667 5.53333 18 6.5 18ZM21.6 18.75L20.15 17.35C20.4367 17.1167 20.65 16.8467 20.79 16.54C20.93 16.2333 21 15.8867 21 15.5C21 14.8 20.7567 14.21 20.27 13.73C19.79 13.2433 19.2 13 18.5 13H17V11C17 9.61999 16.5133 8.43999 15.54 7.45999C14.5667 6.48665 13.3867 5.99999 12 5.99999C11.5533 5.99999 11.12 6.05332 10.7 6.15999C10.28 6.27332 9.88 6.44665 9.5 6.67999L8.05 5.22999C8.63667 4.82999 9.25667 4.52332 9.91 4.30999C10.57 4.10332 11.2667 3.99999 12 3.99999C13.9533 3.99999 15.6067 4.67999 16.96 6.03999C18.32 7.39332 19 9.04665 19 11C20.1533 11.1333 21.1067 11.6333 21.86 12.5C22.62 13.3533 23 14.3533 23 15.5C23 16.1667 22.8767 16.77 22.63 17.31C22.3767 17.87 22.0333 18.35 21.6 18.75Z" fill="black"/>
</svg>
