<svg width="24" height="24" viewBox="0 0 24 24" fill="none" xmlns="http://www.w3.org/2000/svg">
<path d="M20.84 22.73L18.11 20H2.99999V19L4.99999 17V11C4.99999 9.86001 5.28999 8.73001 5.82999 7.72001L1.10999 3.00001L2.38999 1.73001L22.11 21.46L20.84 22.73ZM19 15.8V11C19 7.90001 16.97 5.17001 14 4.29001C14 4.19001 14 4.10001 14 4.00001C14 3.46958 13.7893 2.96087 13.4142 2.5858C13.0391 2.21072 12.5304 2.00001 12 2.00001C11.4696 2.00001 10.9608 2.21072 10.5858 2.5858C10.2107 2.96087 9.99999 3.46958 9.99999 4.00001C9.99999 4.10001 9.99999 4.19001 9.99999 4.29001C9.38999 4.47001 8.79999 4.74001 8.25999 5.09001L19 15.8ZM12 23C12.5304 23 13.0391 22.7893 13.4142 22.4142C13.7893 22.0392 14 21.5304 14 21H9.99999C9.99999 21.5304 10.2107 22.0392 10.5858 22.4142C10.9608 22.7893 11.4696 23 12 23Z" fill="black"/>
</svg>
