<svg width="24" height="24" viewBox="0 0 24 24" fill="none" xmlns="http://www.w3.org/2000/svg">
<circle cx="12" cy="12" r="12" fill="#D9D9D9"/>
<g clip-path="url(#clip0_1654_13185)">
<mask id="mask0_1654_13185" style="mask-type:luminance" maskUnits="userSpaceOnUse" x="4" y="4" width="16" height="16">
<path d="M20 4H4V20H20V4Z" fill="white"/>
</mask>
<g mask="url(#mask0_1654_13185)">
<path fill-rule="evenodd" clip-rule="evenodd" d="M17.7071 6.29289C18.0977 6.68342 18.0977 7.31658 17.7071 7.70711L13.4142 12L17.7071 16.293C18.0976 16.6835 18.0976 17.3167 17.7071 17.7072C17.3166 18.0977 16.6834 18.0977 16.2929 17.7072L12 13.4142L7.70708 17.7072C7.31655 18.0977 6.68339 18.0977 6.29286 17.7072C5.90234 17.3167 5.90234 16.6835 6.29286 16.293L10.5857 12L6.29283 7.70712C5.9023 7.3166 5.90231 6.68343 6.29283 6.29291C6.68335 5.90238 7.31652 5.90238 7.70704 6.29291L12 10.5858L16.2929 6.29289C16.6834 5.90237 17.3166 5.90237 17.7071 6.29289Z" fill="white"/>
</g>
</g>
<defs>
<clipPath id="clip0_1654_13185">
<rect width="16" height="16" fill="white" transform="translate(4 4)"/>
</clipPath>
</defs>
</svg>
