<svg width="48" height="48" viewBox="0 0 48 48" fill="none" xmlns="http://www.w3.org/2000/svg">
<path d="M0 42.2069V36.4138H11.5862V48H0V42.2069ZM9.93104 42.2069V38.069H1.65517V46.3448H9.93104V42.2069ZM3.31034 42.2069V39.7241H8.27586V44.6897H3.31034V42.2069ZM14.8966 47.1724V46.3448H13.2414V43.0345H14.8966V38.069H16.5517V36.4138H13.2414V34.7586H6.62069V33.1035H8.27586V31.4483H4.96552V34.7586H3.31034V33.1035H0V31.4483H3.31034V28.1379H1.65517V29.7931H0V26.4828H3.31034V28.1379H4.96552V29.7931H6.62069V28.1379H8.27586V29.7931H11.5862V28.1379H9.93104V26.4828H4.96552V24.8276H9.93104V23.1724H4.96552V21.5172H3.31034V23.1724H0V18.2069H1.65517V19.8621H11.5862V18.2069H9.93104V16.5517H6.62069V18.2069H4.96552V16.5517H1.65517V13.2414H4.96552V16.5517H6.62069V14.8966H9.93104V13.2414H11.5862V14.8966H9.93104V16.5517H11.5862V18.2069H13.2414V14.8966H14.8966V13.2414H13.2414V8.27586H16.5517V9.93104H18.2069V11.5862H16.5517V13.2414H18.2069V23.1724H14.8966V21.5172H13.2414V23.1724H11.5862V24.8276H9.93104V26.4828H11.5862V28.1379H13.2414V29.7931H16.5517V28.1379H14.8966V26.4828H13.2414V24.8276H16.5517V28.1379H18.2069V24.8276H19.8621V28.1379H21.5172V23.1724H23.1724V21.5172H24.8276V23.1724H23.1724V24.8276H24.8276V26.4828H29.7931V24.8276H28.1379V23.1724H26.4828V19.8621H24.8276V18.2069H26.4828V16.5517H28.1379V14.8966H26.4828V13.2414H24.8276V16.5517H23.1724V14.8966H21.5172V16.5517H19.8621V14.8966H21.5172V13.2414H19.8621V8.27586H18.2069V6.62069H19.8621V8.27586H21.5172V1.65517H23.1724V4.96552H26.4828V3.31034H24.8276V0H28.1379V1.65517H26.4828V3.31034H29.7931V1.65517H31.4483V0H34.7586V4.96552H31.4483V3.31034H29.7931V6.62069H31.4483V11.5862H33.1035V9.93104H34.7586V18.2069H38.069V16.5517H36.4138V13.2414H39.7241V18.2069H43.0345V16.5517H41.3793V13.2414H43.0345V16.5517H44.6897V14.8966H48V18.2069H46.3448V16.5517H44.6897V18.2069H43.0345V23.1724H44.6897V24.8276H43.0345V26.4828H39.7241V28.1379H38.069V29.7931H34.7586V28.1379H33.1035V26.4828H31.4483V29.7931H33.1035V31.4483H38.069V33.1035H41.3793V31.4483H39.7241V29.7931H41.3793V28.1379H43.0345V29.7931H44.6897V31.4483H46.3448V28.1379H44.6897V26.4828H48V31.4483H46.3448V34.7586H48V38.069H46.3448V43.0345H48V44.6897H43.0345V48H38.069V46.3448H41.3793V44.6897H38.069V41.3793H36.4138V44.6897H34.7586V46.3448H36.4138V48H33.1035V43.0345H31.4483V46.3448H29.7931V44.6897H28.1379V38.069H29.7931V43.0345H31.4483V38.069H33.1035V34.7586H31.4483V33.1035H29.7931V31.4483H31.4483V29.7931H29.7931V28.1379H28.1379V34.7586H29.7931V36.4138H26.4828V39.7241H24.8276V43.0345H26.4828V44.6897H24.8276V46.3448H28.1379V48H24.8276V46.3448H23.1724V44.6897H21.5172V48H14.8966V47.1724ZM19.8621 44.6897V43.0345H21.5172V38.069H18.2069V39.7241H19.8621V41.3793H16.5517V43.0345H14.8966V44.6897H16.5517V46.3448H19.8621V44.6897ZM43.0345 43.0345V41.3793H44.6897V38.069H46.3448V36.4138H44.6897V31.4483H43.0345V36.4138H44.6897V38.069H43.0345V39.7241H41.3793V44.6897H43.0345V43.0345ZM34.7586 42.2069V41.3793H33.1035V43.0345H34.7586V42.2069ZM24.8276 38.8966V38.069H23.1724V39.7241H24.8276V38.8966ZM39.7241 37.2414V34.7586H34.7586V39.7241H39.7241V37.2414ZM36.4138 37.2414V36.4138H38.069V38.069H36.4138V37.2414ZM23.1724 35.5862V34.7586H26.4828V33.1035H23.1724V31.4483H21.5172V33.1035H23.1724V34.7586H19.8621V33.1035H18.2069V34.7586H16.5517V33.1035H14.8966V31.4483H13.2414V29.7931H11.5862V31.4483H9.93104V33.1035H11.5862V31.4483H13.2414V33.1035H14.8966V34.7586H16.5517V36.4138H23.1724V35.5862ZM18.2069 30.6207V29.7931H16.5517V31.4483H18.2069V30.6207ZM26.4828 29.7931V28.1379H23.1724V29.7931H24.8276V31.4483H26.4828V29.7931ZM36.4138 27.3103V26.4828H34.7586V28.1379H36.4138V27.3103ZM39.7241 25.6552V24.8276H41.3793V19.8621H39.7241V21.5172H38.069V23.1724H36.4138V21.5172H33.1035V19.8621H31.4483V18.2069H33.1035V13.2414H31.4483V11.5862H29.7931V9.93104H28.1379V11.5862H26.4828V6.62069H28.1379V8.27586H29.7931V6.62069H28.1379V4.96552H26.4828V6.62069H24.8276V11.5862H26.4828V13.2414H28.1379V11.5862H29.7931V16.5517H28.1379V18.2069H26.4828V19.8621H28.1379V23.1724H29.7931V21.5172H33.1035V23.1724H34.7586V24.8276H38.069V26.4828H39.7241V25.6552ZM38.069 24V23.1724H39.7241V24.8276H38.069V24ZM11.5862 22.3448V21.5172H13.2414V19.8621H11.5862V21.5172H9.93104V23.1724H11.5862V22.3448ZM16.5517 19.0345V18.2069H14.8966V19.8621H16.5517V19.0345ZM16.5517 10.7586V9.93104H14.8966V11.5862H16.5517V10.7586ZM23.1724 9.93104V8.27586H21.5172V11.5862H23.1724V9.93104ZM33.1035 2.48276V1.65517H31.4483V3.31034H33.1035V2.48276ZM46.3448 47.1724V46.3448H48V48H46.3448V47.1724ZM46.3448 23.1724V21.5172H44.6897V19.8621H46.3448V21.5172H48V24.8276H46.3448V23.1724ZM0 5.7931V0H11.5862V11.5862H0V5.7931ZM9.93104 5.7931V1.65517H1.65517V9.93104H9.93104V5.7931ZM3.31034 5.7931V3.31034H8.27586V8.27586H3.31034V5.7931ZM36.4138 5.7931V0H48V11.5862H36.4138V5.7931ZM46.3448 5.7931V1.65517H38.069V9.93104H46.3448V5.7931ZM39.7241 5.7931V3.31034H44.6897V8.27586H39.7241V5.7931ZM13.2414 5.7931V4.96552H14.8966V6.62069H13.2414V5.7931ZM16.5517 4.13793V3.31034H14.8966V0H16.5517V1.65517H18.2069V0H19.8621V1.65517H18.2069V4.96552H16.5517V4.13793Z" fill="black"/>
</svg>
