<svg width="24" height="24" viewBox="0 0 24 24" fill="none" xmlns="http://www.w3.org/2000/svg">
<path d="M12.5 3L8.75 6.27273H11.5625V13.6364H13.4375V6.27273H16.25M18.125 21H6.875C5.83438 21 5 20.2636 5 19.3636V9.54545C5 9.11146 5.19754 8.69525 5.54917 8.38837C5.90081 8.08149 6.37772 7.90909 6.875 7.90909H9.6875V9.54545H6.875V19.3636H18.125V9.54545H15.3125V7.90909H18.125C18.6223 7.90909 19.0992 8.08149 19.4508 8.38837C19.8025 8.69525 20 9.11146 20 9.54545V19.3636C20 19.7976 19.8025 20.2138 19.4508 20.5207C19.0992 20.8276 18.6223 21 18.125 21Z" fill="black"/>
</svg>
