<svg width="166" height="40" viewBox="0 0 166 40" fill="none" xmlns="http://www.w3.org/2000/svg">
<path d="M9.48578 30.9685H8.41778V25.3525H9.48578V30.9685ZM9.49778 35.7085H2.68178V31.5445H3.73778V32.7805H8.42978V31.5325H9.49778V35.7085ZM8.42978 34.8565V33.6205H3.73778V34.8565H8.42978ZM3.86978 25.8445C5.36978 25.8445 6.54578 26.8405 6.54578 28.3285C6.54578 29.8285 5.36978 30.7765 3.86978 30.7765C2.36978 30.7765 1.18178 29.8285 1.18178 28.3405C1.18178 26.8645 2.36978 25.8445 3.86978 25.8445ZM3.86978 26.7685C2.95778 26.7685 2.24978 27.3685 2.24978 28.3165C2.24978 29.2645 2.95778 29.8525 3.86978 29.8525C4.79378 29.8525 5.47778 29.2645 5.47778 28.3285C5.47778 27.3685 4.80578 26.7685 3.86978 26.7685ZM19.5086 33.8005C19.5086 35.0605 18.1886 35.8285 15.9686 35.8285C13.7486 35.8285 12.4286 35.0605 12.4286 33.8005C12.4286 32.5285 13.7486 31.7485 15.9686 31.7485C18.1886 31.7485 19.5086 32.5285 19.5086 33.8005ZM11.2886 26.9485V26.0725H17.0126V26.9485H14.7206V27.2365C14.7206 28.7245 15.9806 29.8885 17.1686 30.2485L16.5806 31.1005C15.6446 30.7285 14.6366 29.8285 14.1926 28.8685C13.8566 29.8765 12.7286 30.9445 11.6486 31.3885L11.0126 30.5605C12.3806 30.0685 13.6406 28.7245 13.6406 27.2605V26.9485H11.2886ZM18.4166 33.8005C18.4166 33.0445 17.4806 32.6245 15.9686 32.6245C14.4566 32.6245 13.5326 33.0445 13.5326 33.8005C13.5326 34.5325 14.4566 34.9645 15.9686 34.9645C17.4806 34.9645 18.4166 34.5325 18.4166 33.8005ZM20.9486 29.0005H19.3646V31.8085H18.3086V25.3525H19.3646V28.1125H20.9486V29.0005ZM30.2154 31.8565H28.5954V33.6445H31.1154V34.5085H21.6474V33.6445H24.2034V31.8565H22.7994V28.5685H28.8714V27.0925H22.7874V26.2285H29.9274V29.4325H23.8674V30.9805H30.2154V31.8565ZM25.2354 31.8565V33.6445H27.5514V31.8565H25.2354Z" fill="#7C7C7C"/>
<path fill-rule="evenodd" clip-rule="evenodd" d="M9.75 6.25H22.25V13.75H9.75V6.25ZM8.5 6.25C8.5 5.55965 9.05965 5 9.75 5H22.25C22.9404 5 23.5 5.55965 23.5 6.25V13.75C23.5 14.4404 22.9404 15 22.25 15H9.75C9.05965 15 8.5 14.4404 8.5 13.75V6.25ZM19.125 8.125C19.4701 8.125 19.75 7.84518 19.75 7.5C19.75 7.15482 19.4701 6.875 19.125 6.875C18.7799 6.875 18.5 7.15482 18.5 7.5C18.5 7.84518 18.7799 8.125 19.125 8.125ZM19.75 10C19.75 10.3452 19.4701 10.625 19.125 10.625C18.7799 10.625 18.5 10.3452 18.5 10C18.5 9.65483 18.7799 9.375 19.125 9.375C19.4701 9.375 19.75 9.65483 19.75 10ZM19.125 13.125C19.4701 13.125 19.75 12.8451 19.75 12.5C19.75 12.1548 19.4701 11.875 19.125 11.875C18.7799 11.875 18.5 12.1548 18.5 12.5C18.5 12.8451 18.7799 13.125 19.125 13.125Z" fill="#7C7C7C"/>
<path fill-rule="evenodd" clip-rule="evenodd" d="M55.8755 2.5C55.5303 2.5 55.2505 2.77983 55.2505 3.125V3.75H52.7505C52.0601 3.75 51.5005 4.30964 51.5005 5V16.25C51.5005 16.9404 52.0601 17.5 52.7505 17.5H65.2505C65.9409 17.5 66.5005 16.9404 66.5005 16.25V5C66.5005 4.30965 65.9409 3.75 65.2505 3.75H62.7505V3.125C62.7505 2.77983 62.4706 2.5 62.1255 2.5C61.7804 2.5 61.5005 2.77983 61.5005 3.125V3.75H56.5005V3.125C56.5005 2.77983 56.2207 2.5 55.8755 2.5ZM61.5005 5.625V5H56.5005V5.625C56.5005 5.97018 56.2207 6.25 55.8755 6.25C55.5303 6.25 55.2505 5.97018 55.2505 5.625V5H52.7505V16.25H65.2505V5H62.7505V5.625C62.7505 5.97018 62.4706 6.25 62.1255 6.25C61.7804 6.25 61.5005 5.97018 61.5005 5.625ZM63.6236 7.94963C63.8719 7.70986 63.8789 7.3142 63.6391 7.06588C63.3994 6.81756 63.0036 6.81061 62.7554 7.05037L57.9972 11.6444L55.67 9.53675C55.4142 9.30504 55.019 9.3246 54.7872 9.58045C54.5555 9.8363 54.5751 10.2315 54.8309 10.4632L57.5913 12.9632C57.8352 13.184 58.2084 13.1781 58.445 12.9496L63.6236 7.94963Z" fill="#7C7C7C"/>
<path d="M51.4612 26.228C52.4452 26.228 53.0932 26.84 53.4532 27.8H54.8812V25.556H55.8892V35.324H54.8812V31.952H53.4292C53.0692 32.9 52.4212 33.5 51.4612 33.5C49.9012 33.5 49.1572 31.916 49.1572 29.84C49.1572 27.788 49.9012 26.228 51.4612 26.228ZM52.7332 29.852C52.7332 28.244 52.3012 27.116 51.4612 27.116C50.6212 27.116 50.2012 28.244 50.2012 29.852C50.2012 31.472 50.6212 32.6 51.4612 32.6C52.3012 32.6 52.7332 31.472 52.7332 29.852ZM57.9292 35.84H56.9092V25.352H57.9292V35.84ZM54.8812 28.676H53.6812C53.7412 29.048 53.7772 29.432 53.7772 29.852C53.7772 30.296 53.7412 30.704 53.6692 31.088H54.8812V28.676ZM62.348 25.94C63.884 25.94 65.132 26.96 65.132 28.46C65.132 29.96 63.896 30.932 62.348 30.932C60.824 30.932 59.564 29.972 59.564 28.46C59.564 26.972 60.812 25.94 62.348 25.94ZM69.116 29.132V30.02H67.556V31.52H66.488V25.352H67.556V26.96H69.116V27.836H67.556V29.132H69.116ZM67.556 35.852H66.5V32.912H60.764V32.06H67.556V35.852ZM62.348 26.84C61.352 26.84 60.656 27.536 60.656 28.448C60.656 29.408 61.364 30.068 62.348 30.068C63.368 30.068 64.052 29.408 64.052 28.46C64.052 27.536 63.392 26.84 62.348 26.84Z" fill="#7C7C7C"/>
<path fill-rule="evenodd" clip-rule="evenodd" d="M105.438 4.375C105.438 4.72017 105.158 5 104.812 5C104.467 5 104.188 4.72017 104.188 4.375C104.188 4.02982 104.467 3.75 104.812 3.75C105.158 3.75 105.438 4.02982 105.438 4.375ZM106.688 4.375C106.688 5.41054 105.848 6.25 104.812 6.25C103.777 6.25 102.938 5.41054 102.938 4.375C102.938 3.33946 103.777 2.5 104.812 2.5C105.848 2.5 106.688 3.33946 106.688 4.375ZM101.375 7.5C101.72 7.5 102 7.22017 102 6.875C102 6.52982 101.72 6.25 101.375 6.25C101.03 6.25 100.75 6.52982 100.75 6.875C100.75 7.22017 101.03 7.5 101.375 7.5ZM101.375 8.75C102.411 8.75 103.25 7.91054 103.25 6.875C103.25 5.83946 102.411 5 101.375 5C100.339 5 99.5 5.83946 99.5 6.875C99.5 7.91054 100.339 8.75 101.375 8.75ZM104.764 9.76729L102.457 14.3804C102.149 14.9976 102.671 15.7044 103.351 15.5909C105.767 15.1882 108.233 15.1882 110.649 15.5909C111.329 15.7044 111.851 14.9976 111.543 14.3804L109.236 9.76727C108.315 7.92466 105.685 7.92466 104.764 9.76729ZM103.646 9.20826L101.339 13.8214C100.574 15.3524 101.868 17.1054 103.557 16.8239C105.837 16.444 108.163 16.444 110.443 16.8239C112.132 17.1054 113.426 15.3524 112.661 13.8214L110.354 9.20826C108.972 6.44434 105.028 6.44434 103.646 9.20826ZM109.188 5C109.533 5 109.812 4.72017 109.812 4.375C109.812 4.02982 109.533 3.75 109.188 3.75C108.842 3.75 108.562 4.02982 108.562 4.375C108.562 4.72017 108.842 5 109.188 5ZM109.188 6.25C110.223 6.25 111.062 5.41054 111.062 4.375C111.062 3.33946 110.223 2.5 109.188 2.5C108.152 2.5 107.312 3.33946 107.312 4.375C107.312 5.41054 108.152 6.25 109.188 6.25ZM113.25 6.875C113.25 7.22017 112.97 7.5 112.625 7.5C112.28 7.5 112 7.22017 112 6.875C112 6.52982 112.28 6.25 112.625 6.25C112.97 6.25 113.25 6.52982 113.25 6.875ZM114.5 6.875C114.5 7.91054 113.66 8.75 112.625 8.75C111.59 8.75 110.75 7.91054 110.75 6.875C110.75 5.83946 111.59 5 112.625 5C113.66 5 114.5 5.83946 114.5 6.875Z" fill="#7C7C7C"/>
<path d="M96.3624 29.3005H94.7904V32.9485H93.7344V25.3525H94.7904V28.4125H96.3624V29.3005ZM95.1624 35.5045H88.1304V32.2525H89.1864V34.6405H95.1624V35.5045ZM91.9824 31.3885H87.0264V26.0605H88.0704V27.8485H90.9264V26.0485H91.9824V31.3885ZM90.9264 30.5365V28.6885H88.0704V30.5365H90.9264ZM102.725 32.2525L102.833 33.1045C101.741 33.2725 100.169 33.3805 98.4052 33.3805H97.4332V29.2045H101.009V27.1645H97.4332V26.3005H102.065V30.0685H98.4892V32.5165C99.6652 32.5165 101.393 32.4805 102.725 32.2525ZM102.773 31.5085V30.6445H104.609V28.8085H102.773V27.9325H104.609V25.3525H105.665V35.8405H104.609V31.5085H102.773ZM115.772 29.3125H112.712V30.5605H116.924V31.4245H107.456V30.5605H111.644V29.3125H108.596V25.7725H115.7V26.6365H109.652V28.4485H115.772V29.3125ZM115.808 33.9685C115.808 35.1565 114.488 35.8405 112.184 35.8405C109.892 35.8405 108.572 35.1445 108.572 33.9685C108.572 32.8165 109.892 32.1085 112.184 32.1085C114.488 32.1085 115.808 32.7925 115.808 33.9685ZM112.184 32.9725C110.636 32.9725 109.664 33.3445 109.664 33.9805C109.664 34.6285 110.636 34.9885 112.184 34.9885C113.756 34.9885 114.728 34.6285 114.728 33.9805C114.728 33.3445 113.756 32.9725 112.184 32.9725ZM126.575 35.7685H118.955V33.2845H125.123V32.5165H118.883V31.6525H122.015V30.7045H117.839V29.8645H127.307V30.7045H123.083V31.6525H126.179V34.0765H120.011V34.8925H126.575V35.7685ZM126.119 29.0245H119.063V25.7605H126.119V29.0245ZM125.039 28.1725V26.6125H120.119V28.1725H125.039Z" fill="#7C7C7C"/>
<path fill-rule="evenodd" clip-rule="evenodd" d="M150.375 3.125H157.562C159.806 3.125 161.625 4.94383 161.625 7.18747C161.625 9.43112 159.806 11.2499 157.562 11.2499H151.625V17.4999H150.375V3.125ZM151.625 9.99995H157.562C159.116 9.99995 160.375 8.74076 160.375 7.18747C160.375 5.63418 159.116 4.37499 157.562 4.37499H151.625V9.99995Z" fill="#7C7C7C"/>
<path d="M154.121 29.468L153.641 30.32C152.045 30.068 150.317 29.06 149.801 28.112C149.345 29.096 147.677 30.092 146.009 30.356L145.505 29.516C147.161 29.336 149.093 28.304 149.249 26.972H145.949V26.096H153.689V26.972H150.377C150.545 28.304 152.549 29.3 154.121 29.468ZM150.317 35.84H149.249V32.168H145.073V31.304H154.541V32.168H150.317V35.84ZM161.576 32.96L160.952 33.764C159.908 33.236 158.78 32.06 158.456 30.98C158.168 32.084 157.04 33.404 155.876 34.016L155.192 33.248C156.644 32.504 157.904 30.98 157.904 28.964V28.7H155.564V27.836H161.312V28.7H158.996V28.952C158.996 30.968 160.244 32.36 161.576 32.96ZM165.2 30.512H163.556V35.84H162.5V25.352H163.556V29.624H165.2V30.512ZM159.98 26.888H156.884V26.012H159.98V26.888Z" fill="#7C7C7C"/>
</svg>
