<svg width="16" height="16" viewBox="0 0 16 16" fill="none" xmlns="http://www.w3.org/2000/svg">
<path fill-rule="evenodd" clip-rule="evenodd" d="M9.68183 7.5H10.7061H11.9512C12.5706 7.5 13.0483 8.03268 12.9664 8.63216L12.4885 12.1322C12.4206 12.629 11.9865 13 11.4732 13H5.58485V7.44999C6.75364 7.21836 7.63334 6.20948 7.63334 5V3.33333C7.63334 3.14924 7.7862 3 7.97475 3C8.91754 3 9.68183 3.74619 9.68183 4.66667V6.5V7.5ZM5.07273 6.5C5.92124 6.5 6.6091 5.82843 6.6091 5V3.33333C6.6091 2.59695 7.22052 2 7.97475 2C9.48322 2 10.7061 3.19391 10.7061 4.66667V5.5V6.5H11.7303H11.9512C13.1901 6.5 14.1454 7.56536 13.9817 8.76433L13.5037 12.2643C13.368 13.2579 12.4999 14 11.4732 14H5.07273H5.07172H2.51212C2.22928 14 2 13.7761 2 13.5V7C2 6.72386 2.22928 6.5 2.51212 6.5H5.07273ZM4.56061 13V7.5H3.02424V13H4.56061Z" fill="#D9D9D9"/>
</svg>
