<svg width="25" height="25" viewBox="0 0 25 25" fill="none" xmlns="http://www.w3.org/2000/svg">
<path d="M5.28571 20.3125C5.28571 20.7601 5.4889 21.1893 5.85058 21.5057C6.21226 21.8222 6.7028 22 7.21429 22H18.7857C19.2972 22 19.7877 21.8222 20.1494 21.5057C20.5111 21.1893 20.7143 20.7601 20.7143 20.3125V8.5H5.28571V20.3125ZM16.2143 11.3125C16.2143 11.1633 16.282 11.0202 16.4026 10.9148C16.5231 10.8093 16.6866 10.75 16.8571 10.75C17.0276 10.75 17.1912 10.8093 17.3117 10.9148C17.4323 11.0202 17.5 11.1633 17.5 11.3125V19.1875C17.5 19.3367 17.4323 19.4798 17.3117 19.5852C17.1912 19.6907 17.0276 19.75 16.8571 19.75C16.6866 19.75 16.5231 19.6907 16.4026 19.5852C16.282 19.4798 16.2143 19.3367 16.2143 19.1875V11.3125ZM12.3571 11.3125C12.3571 11.1633 12.4249 11.0202 12.5454 10.9148C12.666 10.8093 12.8295 10.75 13 10.75C13.1705 10.75 13.334 10.8093 13.4546 10.9148C13.5751 11.0202 13.6429 11.1633 13.6429 11.3125V19.1875C13.6429 19.3367 13.5751 19.4798 13.4546 19.5852C13.334 19.6907 13.1705 19.75 13 19.75C12.8295 19.75 12.666 19.6907 12.5454 19.5852C12.4249 19.4798 12.3571 19.3367 12.3571 19.1875V11.3125ZM8.5 11.3125C8.5 11.1633 8.56773 11.0202 8.68829 10.9148C8.80885 10.8093 8.97236 10.75 9.14286 10.75C9.31335 10.75 9.47687 10.8093 9.59743 10.9148C9.71798 11.0202 9.78571 11.1633 9.78571 11.3125V19.1875C9.78571 19.3367 9.71798 19.4798 9.59743 19.5852C9.47687 19.6907 9.31335 19.75 9.14286 19.75C8.97236 19.75 8.80885 19.6907 8.68829 19.5852C8.56773 19.4798 8.5 19.3367 8.5 19.1875V11.3125ZM21.3571 5.12501H16.5357L16.158 4.46758C16.078 4.32703 15.9548 4.20881 15.8022 4.1262C15.6496 4.0436 15.4736 3.99989 15.2942 4.00001H10.7018C10.5227 3.9994 10.3471 4.04295 10.1951 4.12564C10.043 4.20834 9.92062 4.32684 9.84196 4.46758L9.46429 5.12501H4.64286C4.47236 5.12501 4.30885 5.18427 4.18829 5.28976C4.06773 5.39525 4 5.53832 4 5.68751V6.81251C4 6.96169 4.06773 7.10476 4.18829 7.21025C4.30885 7.31574 4.47236 7.37501 4.64286 7.37501H21.3571C21.5276 7.37501 21.6912 7.31574 21.8117 7.21025C21.9323 7.10476 22 6.96169 22 6.81251V5.68751C22 5.53832 21.9323 5.39525 21.8117 5.28976C21.6912 5.18427 21.5276 5.12501 21.3571 5.12501Z" fill="black"/>
</svg>
