<svg width="50" height="50" viewBox="0 0 50 50" fill="none" xmlns="http://www.w3.org/2000/svg">
<path fill-rule="evenodd" clip-rule="evenodd" d="M6.25 0C2.79812 0 0 2.79812 0 6.25V43.75C0 47.2019 2.79812 50 6.25 50H43.75C47.2019 50 50 47.2019 50 43.75V6.25C50 2.79812 47.2019 0 43.75 0H6.25ZM4.16667 6.25C4.16667 5.09937 5.09937 4.16667 6.25 4.16667H43.75C44.9006 4.16667 45.8333 5.09937 45.8333 6.25V43.75C45.8333 44.9006 44.9006 45.8333 43.75 45.8333H6.25C5.09937 45.8333 4.16667 44.9006 4.16667 43.75V6.25ZM22.9167 14.5833C22.9167 13.4327 23.8494 12.5 25 12.5C26.1506 12.5 27.0833 13.4327 27.0833 14.5833V22.9167H35.4167C36.5673 22.9167 37.5 23.8494 37.5 25C37.5 26.1506 36.5673 27.0833 35.4167 27.0833H27.0833V35.4167C27.0833 36.5673 26.1506 37.5 25 37.5C23.8494 37.5 22.9167 36.5673 22.9167 35.4167V27.0833H14.5833C13.4327 27.0833 12.5 26.1506 12.5 25C12.5 23.8494 13.4327 22.9167 14.5833 22.9167H22.9167V14.5833Z" fill="#F0F0F0"/>
</svg>
