<svg width="24" height="24" viewBox="0 0 24 24" fill="none" xmlns="http://www.w3.org/2000/svg">
<path d="M18 13L21 16V20C21 21.11 20.1 22 19 22H5C3.89 22 3 21.1 3 20V16L6 13H6.83L8.83 15H6.78L5 17H19L17.23 15H15.32L17.32 13H18ZM19 20V19H5V20H19ZM11.34 15L6.39 10.07C6 9.68001 6 9.05001 6.39 8.66001L12.76 2.29001C13.15 1.90001 13.78 1.90001 14.16 2.30001L19.11 7.25001C19.5 7.64001 19.5 8.27001 19.11 8.66001L12.75 15C12.36 15.41 11.73 15.41 11.34 15ZM13.46 4.41001L8.5 9.36001L12.05 12.9L17 7.95001L13.46 4.41001Z" fill="black"/>
</svg>
