<svg width="100" height="100" viewBox="0 0 100 100" fill="none" xmlns="http://www.w3.org/2000/svg">
<path d="M41.3464 94.4496C37.1833 96.0069 33.0267 95.9944 28.7635 95.6088C24.0141 95.1791 20.0095 93.0595 16.5654 90.1462C13.0842 87.2015 10.9759 83.214 10.8282 78.4407C10.7305 75.2841 10.8151 72.1305 11.7089 69.0919C12.1974 67.4309 13.0569 65.8791 13.7755 64.2173C10.5138 62.3874 7.93304 59.6298 5.6705 56.5879C4.3582 54.8236 3.44022 52.8096 3.33388 50.533C3.23976 48.518 3.01565 46.4983 3.08451 44.4887C3.25268 39.5809 4.81836 35.1362 7.985 31.3384C11.5962 27.0076 16.3757 24.8886 21.8704 24.1586C23.1202 23.9926 24.354 23.7065 25.7749 23.4422C26.1348 21.934 26.6057 20.2631 26.9227 18.5635C27.4429 15.7741 28.7498 13.4217 30.5331 11.2525C32.1061 9.33898 33.7279 7.42915 36.0039 6.43424C38.7679 5.22598 41.6164 4.07726 44.5444 3.42002C46.8772 2.89638 49.4041 2.91073 51.8094 3.11111C55.6504 3.4311 59.4871 3.94581 62.765 6.36685C64.7738 7.85058 65.9315 9.94298 67.2103 11.9632C67.8963 13.047 68.4784 14.1965 69.2317 15.5377C70.0725 15.3927 71.2045 15.0679 72.3472 15.024C76.4515 14.8663 80.5367 14.9812 84.3969 16.659C87.3536 17.944 89.7788 19.8365 91.6987 22.4893C93.7542 25.3297 95.2052 28.4134 96.1124 31.7594C97.1563 35.609 98.365 39.5161 97.7206 43.5277C96.8054 49.2247 94.8212 54.4888 90.0011 58.1925C89.9293 58.2477 89.8789 58.3308 89.7388 58.4933C90.213 59.1462 90.6795 59.8401 91.1978 60.4928C92.9403 62.6871 93.7388 65.2456 93.8671 67.9778C94.1199 73.358 92.8596 78.4841 90.6455 83.33C89.1097 86.6911 86.603 89.4059 83.6741 91.6429C81.0692 93.6324 78.2665 95.4378 74.9734 95.9392C72.7132 96.2832 70.3579 96.2267 68.0648 96.067C65.8766 95.9145 63.6844 95.521 61.5462 95.0136C57.0547 93.9478 53.6937 91.1967 51.0418 87.4259C48.1674 90.3195 45.1861 92.8949 41.3464 94.4496Z" fill="#FFA9FF"/>
</svg>
