<svg width="100" height="100" viewBox="0 0 100 100" fill="none" xmlns="http://www.w3.org/2000/svg">
<path d="M82.6291 18.6716C84.0414 19.157 85.4799 19.022 86.6622 19.9754C87.8712 20.9502 88.6955 22.2079 88.8331 23.6158C89.4085 29.5029 89.264 35.4228 89.0957 41.3218C89.0263 43.7536 88.5632 46.2325 87.7873 48.5998C86.8239 51.5393 84.0313 53.1561 81.0289 52.4567C78.6718 51.9076 76.267 51.591 73.939 50.8767C73.1896 50.6467 72.5813 50.0237 71.6146 50.0566C76.1799 56.8611 79.8497 64.0128 82.8353 71.7046C80.6864 71.5191 78.8197 70.8581 76.915 70.3913C75.4827 70.0403 74.0266 69.7785 72.6412 69.2334C72.0599 69.0046 71.5129 69.217 71.1118 69.7325C68.8154 72.6841 66.5159 75.6333 63.9447 78.9334C59.3626 68.0526 54.8618 57.3649 50.2703 46.4617C49.2576 48.8565 48.3117 51.0837 47.3735 53.3142C45.6939 57.3075 44.0084 61.2984 42.3453 65.2985C40.7859 69.0493 39.2718 72.8189 37.6906 76.5603C37.385 77.2833 36.9664 78.3339 36.4099 78.4729C35.8222 78.6197 35.4539 77.4768 34.9947 76.8929C33.1783 74.5834 31.3599 72.2754 29.5458 69.964C28.9765 69.2385 28.3929 69.1045 27.4274 69.3982C24.6051 70.2567 21.7251 70.9267 18.8624 71.6493C18.5618 71.7252 18.2256 71.6595 17.7472 71.6595C19.1354 67.7754 20.876 64.19 22.7248 60.6262C24.596 57.0191 26.5617 53.4822 28.8126 50.055C25.8097 51.4475 22.6117 51.9842 19.4521 52.426C15.7632 52.9417 13.4783 51.8281 12.4448 47.5089C10.8134 40.6907 11.4923 33.8052 11.4933 26.949C11.4935 25.3992 11.3064 23.6625 12.2112 22.0506C13.2656 20.1722 14.673 19.2185 16.747 18.8681C20.8852 18.1689 24.8875 18.9254 28.8632 19.8632C33.7035 21.0049 38.3339 22.784 42.8177 24.9209C44.5139 25.7294 46.2383 26.5673 47.7378 27.6782C49.7774 29.1893 51.4684 28.5558 53.3082 27.4017C59.5547 23.4834 66.357 20.9691 73.5505 19.4194C76.5169 18.7804 79.4928 18.5246 82.6291 18.6716Z" fill="#FFA9FF"/>
</svg>
