<svg width="100" height="100" viewBox="0 0 100 100" fill="none" xmlns="http://www.w3.org/2000/svg">
<path d="M44.139 25.5763C43.5905 24.6373 43.0548 23.6903 42.4861 22.7636C42.2984 22.4577 42.0439 22.1858 41.7891 21.929C39.0116 19.1296 36.2281 16.3364 33.239 13.3333C34.3958 13.3333 35.3722 13.3706 36.3442 13.3221C37.1992 13.2795 38.0904 13.2675 38.8898 13.0082C39.6518 12.7611 40.0188 12.1173 40.0295 11.1901C40.0509 9.34208 40.2425 7.496 40.3773 5.4425C42.683 7.36398 44.7748 9.03606 46.7808 10.8054C48.0018 11.8823 49.1304 13.0728 50.2308 14.276C52.9232 17.2197 55.1193 20.493 56.7966 24.1286C58.6046 28.0475 58.7384 32.1008 58.3978 36.3325C57.8668 42.9294 54.1864 48.0367 50.922 53.3747C50.5957 53.9084 50.2493 54.4299 49.8198 54.8864C49.8178 54.4598 49.871 54.0893 50.0043 53.7503C51.9477 48.807 52.2352 43.7504 50.4833 38.7559C49.1143 34.8527 47.344 31.0871 45.6673 27.2979C45.3716 26.6295 44.6591 26.1455 44.139 25.5763Z" fill="#FFA9FF"/>
<path d="M45.2294 71.1234C46.3668 72.8429 47.3006 74.756 48.6994 76.2269C50.0737 77.6721 51.9202 78.6682 53.5713 79.87C51.8001 81.1369 48.0604 81.6327 45.7868 80.8312C44.4227 83.8858 46.6244 86.3017 47.1383 89.1431C45.6808 89.2951 44.5761 88.2567 43.5823 87.518C39.8193 84.7208 36.8644 81.1739 34.8493 76.9125C33.7062 74.4952 33.1639 71.9669 32.9905 69.2426C32.5515 62.3434 35.2728 56.4988 38.526 50.7627C38.7019 50.4525 38.8184 50.1085 39.0634 49.8651C39.0733 51.1436 38.8686 52.3415 38.9108 53.5305C39.1085 59.096 40.8701 64.2076 43.6097 69.0056C43.987 69.6664 44.5483 70.2221 45.0245 70.8265C45.0245 70.8265 45.0054 70.8303 45.0248 70.8841C45.0908 71.0149 45.1525 71.0768 45.2294 71.1234Z" fill="#FFA9FF"/>
<path d="M45.0131 70.7103C44.5484 70.2221 43.987 69.6664 43.6097 69.0056C40.8701 64.2076 39.1085 59.096 38.9109 53.5305C38.8686 52.3415 39.0733 51.1436 39.1535 49.8224C39.1427 49.6949 39.149 49.7159 39.1993 49.6801C39.309 49.5709 39.3684 49.4975 39.4279 49.4241C40.702 47.284 41.9407 45.1217 43.2591 43.0093C44.9962 40.2258 46.578 37.3829 46.9305 34.0479C47.2648 30.8854 45.6266 28.3542 44.1523 25.6766C44.6591 26.1455 45.3716 26.6295 45.6673 27.2979C47.344 31.0871 49.1143 34.8527 50.4833 38.7559C52.2352 43.7504 51.9477 48.807 50.0043 53.7503C49.871 54.0893 49.8178 54.4598 49.7291 54.9268C48.62 57.2197 47.4332 59.3669 46.4173 61.592C45.1159 64.4424 44.012 67.3649 45.0131 70.7103Z" fill="#CA99FF"/>
<path d="M39.3566 49.4473C39.3685 49.4975 39.309 49.5709 39.1885 49.6824C39.1801 49.6372 39.2327 49.5539 39.3566 49.4473Z" fill="#FFA9FF"/>
<path d="M45.2467 71.0465C45.1525 71.0767 45.0908 71.0149 45.026 70.8744C45.0932 70.8638 45.1786 70.9167 45.2467 71.0465Z" fill="#CA99FF"/>
</svg>
