<svg width="56" height="56" viewBox="0 0 56 56" fill="none" xmlns="http://www.w3.org/2000/svg">
<rect width="56" height="56" rx="13" fill="#F0F0F0"/>
<path fill-rule="evenodd" clip-rule="evenodd" d="M15.2148 16.8677C15.038 16.3444 15.3189 15.777 15.8421 15.6002L17.7369 14.9601L19.6317 14.32C20.1549 14.1432 20.7224 14.4241 20.8992 14.9473L22.0194 18.2632C22.2845 19.048 21.6512 19.9709 20.6047 20.3244C19.5582 20.6779 18.495 20.3283 18.2298 19.5434C17.9647 18.7586 18.598 17.8357 19.6445 17.4822L19.3244 16.5348L18.377 16.8549L17.4296 17.1749L18.2298 19.5434C18.495 20.3283 17.8616 21.2511 16.8151 21.6047C15.7686 21.9582 14.7054 21.6085 14.4402 20.8237C14.1751 20.0388 14.8085 19.116 15.8549 18.7625L15.2148 16.8677ZM25.6793 20.3209C25.9306 20.9411 26.3243 21.4494 26.7862 21.8021C26.8428 21.8453 26.9005 21.8862 26.959 21.9246C26.6433 22.0321 26.3837 22.2367 26.2045 22.4954L20.6387 24.2897C20.2396 24.4183 20.0203 24.8462 20.149 25.2453C20.2776 25.6444 20.7055 25.8637 21.1046 25.735L26.1193 24.1184L27.3233 27.1277C26.0897 27.6361 24.1821 29.2257 21.9795 33.1364C19.2295 34.1505 15.0722 36.7586 20.4428 39.0781C23.1578 40.0721 29.9825 41.2468 36.579 38.5151C37.2641 38.2314 37.5986 37.4664 37.3558 36.7658C36.2476 33.5682 33.9977 28.6459 31.3044 27.2641C31.3072 27.2375 31.3093 27.2107 31.3107 27.1838L31.484 23.809L36.59 25.0274C36.9979 25.1247 37.4075 24.873 37.5048 24.4651C37.6022 24.0572 37.3504 23.6476 36.9425 23.5503L31.3371 22.2127C31.1652 21.9032 30.8884 21.661 30.5581 21.532C30.4309 21.4823 30.2959 21.4495 30.1558 21.436C30.0981 21.4304 30.0396 21.4282 29.9804 21.4294L30.0005 21.3989C30.3426 20.8731 30.4964 20.1808 30.4201 19.4527C30.3876 19.1429 30.3135 18.8267 30.1944 18.514C29.597 16.9451 28.0953 16.0607 26.8402 16.5386C25.5851 17.0165 25.0519 18.6757 25.6493 20.2446C25.659 20.2702 25.669 20.2957 25.6793 20.3209ZM32.41 20.3776C32.4998 19.5203 32.3786 18.63 32.0635 17.8023C31.2295 15.6119 28.7835 13.6585 26.1285 14.6695C23.4735 15.6804 22.9462 18.7659 23.7802 20.9563C23.8051 21.0216 23.831 21.0864 23.8581 21.1505L20.025 22.3861C18.5746 22.8537 17.7779 24.4085 18.2454 25.859C18.713 27.3094 20.2679 28.1061 21.7183 27.6385L24.2272 26.8297C23.0789 27.8755 21.854 29.4028 20.5943 31.535C19.9984 31.7884 19.3712 32.0991 18.7808 32.46C17.9902 32.9433 17.0936 33.6198 16.5013 34.5091C15.8445 35.4954 15.5082 36.8775 16.278 38.2775C16.9264 39.4567 18.1817 40.2801 19.6499 40.9142L19.702 40.9367L19.7553 40.9562C22.8059 42.073 30.1666 43.3353 37.3443 40.3629C39.0282 39.6655 39.8276 37.7905 39.2455 36.1109C38.6642 34.4336 37.7766 32.2801 36.658 30.3364C35.8449 28.9236 34.7962 27.4166 33.5082 26.3482L36.1258 26.9728C37.6082 27.3265 39.0965 26.4115 39.4502 24.9292C39.8039 23.447 38.889 21.9586 37.4067 21.6049L32.459 20.4243C32.4428 20.4086 32.4264 20.393 32.41 20.3776ZM39.0078 15.1104C38.4947 14.906 37.9131 15.1562 37.7086 15.6692L36.9683 17.5271C35.9422 17.1183 34.8618 17.4107 34.5551 18.1803C34.2485 18.9499 34.8317 19.9052 35.8578 20.314C36.8839 20.7229 37.9644 20.4305 38.271 19.6609L39.1964 17.3385L40.1254 17.7087C40.6384 17.9131 41.2201 17.6629 41.4245 17.1499C41.629 16.6368 41.3788 16.0552 40.8657 15.8507L39.0078 15.1104Z" fill="black"/>
</svg>
