<svg width="100" height="100" viewBox="0 0 100 100" fill="none" xmlns="http://www.w3.org/2000/svg">
<path d="M33.7925 88.5415C31.4695 89.6528 29.3014 90.9007 26.9813 91.7162C22.8515 93.1678 17.5079 91.3755 15.297 87.8631C14.6569 86.8461 14.2969 85.5237 14.2063 84.3116C13.7758 78.5478 15.4548 73.0808 16.7853 67.5727C17.1653 65.9996 17.7058 64.4586 17.9768 62.8695C18.0696 62.3255 17.7088 61.5491 17.3069 61.1024C15.4981 59.0922 13.5801 57.1808 11.7391 55.1988C9.33276 52.6082 7.57259 49.5605 6.52001 46.2446C5.47038 42.9379 5.78673 38.4625 8.91298 35.5349C12.4487 32.2239 16.6048 30.487 21.3559 29.9997C24.5743 29.6696 27.793 29.343 30.8689 29.0293C33.6217 23.9396 36.3094 18.8325 39.1319 13.801C40.9645 10.5341 43.6785 8.58347 47.639 9.18696C49.5887 9.48405 50.7844 10.8497 51.6698 12.519C51.7825 12.7315 51.9075 12.9591 52.0849 13.1128C55.2267 15.8336 57.5645 19.1582 59.4553 22.8294C60.4286 24.719 61.4707 26.5731 62.4426 28.4633C63.3779 30.2823 64.1925 30.6913 66.1985 30.2364C66.5051 30.1668 66.8072 30.0207 67.1135 30.0142C72.0916 29.9086 77.0701 29.7462 82.0482 29.758C84.5504 29.764 87.1578 29.7069 89.5316 30.3575C94.4007 31.6919 96.1951 37.0114 92.7424 40.9444C90.2411 43.7936 87.4764 46.4254 84.6994 49.0149C82.2623 51.2874 79.6447 53.3663 77.1136 55.5249C78.1765 58.3205 79.2947 61.2124 80.376 64.1179C81.8038 67.9545 83.4303 71.7692 83.8225 75.8697C84.1965 79.7812 84.012 83.6759 80.5788 86.5185C78.7943 87.996 76.8185 88.9244 74.4897 89.1805C68.197 89.8726 61.9902 89.3428 56.0855 87.1507C52.3619 85.7683 48.8414 83.769 45.3816 81.782C44.1052 81.049 43.6048 81.3775 42.6374 82.1271C39.7873 84.3355 36.8078 86.3767 33.7925 88.5415Z" fill="#00BBFF"/>
</svg>
