<svg width="100" height="100" viewBox="0 0 100 100" fill="none" xmlns="http://www.w3.org/2000/svg">
<path d="M55.4319 2.69271C62.7067 2.75085 69.3357 4.78457 75.518 8.20974C79.7737 10.5675 83.5462 13.5817 86.7173 17.3616C90.6928 22.1004 93.6955 27.334 95.6068 33.2069C96.8467 37.0171 97.4555 40.9159 97.5201 44.9296C97.6047 50.1859 97.3828 55.388 95.8371 60.464C93.8434 67.0111 90.6997 72.9788 86.47 78.3183C84.0313 81.3969 81.1888 84.1242 78.0624 86.5785C72.89 90.6388 67.2084 93.6483 60.9543 95.5922C57.891 96.5444 54.7505 97.0674 51.5285 97.2758C49.6033 97.4003 47.6834 97.528 45.7593 97.4916C37.6518 97.3382 30.187 95.0872 23.3306 90.7174C19.4991 88.2755 16.0943 85.3537 13.1948 81.9016C8.56432 76.3885 5.57216 70.0492 4.14394 62.9646C3.62897 60.4102 3.29823 57.8583 3.30897 55.1293C3.09528 53.7907 3.23149 52.5724 3.24821 51.2334C3.30241 46.283 4.10026 41.5763 5.66822 37.0254C7.69902 31.1312 10.6611 25.7576 14.6953 20.953C19.4873 15.2461 25.0998 10.6251 31.8525 7.46173C34.223 6.35123 36.5513 5.16656 39.2926 4.89371C40.5926 4.76433 41.8403 3.80542 43.2924 3.55746C45.7121 3.14425 48.1156 2.73247 50.7046 2.75342C52.32 2.52971 53.8148 2.68209 55.4319 2.69271Z" fill="#FFFF95"/>
<path d="M55.4933 2.63319C54.068 2.74417 52.5785 2.75484 50.9603 2.74937C52.3453 2.23482 53.8967 2.59991 55.4933 2.63319Z" fill="#FFFF00"/>
<path d="M3.18903 51.1727C3.29963 52.3215 3.31033 53.5336 3.30491 54.8738C2.77955 53.77 3.1588 52.4912 3.18903 51.1727Z" fill="#FFFF00"/>
<path d="M59.8343 64.5766C62.0729 62.9857 63.5657 61.087 63.9197 58.3246C64.2612 55.6593 66.8638 53.8413 69.4541 54.2122C72.1035 54.5915 73.9398 56.9193 73.7205 59.6429C73.4522 62.9764 72.1465 65.8893 70.0889 68.4898C61.2635 79.644 41.1801 80.6147 31.3304 70.3481C28.4298 67.3246 26.7964 63.7199 26.7417 59.4983C26.6958 55.9541 29.7239 53.5964 33.0748 54.4771C34.9296 54.9646 36.5764 56.6746 36.619 58.6543C36.7024 62.5364 39.0393 64.6761 42.2191 66.007C48.2493 68.5308 54.138 68.0303 59.8343 64.5766Z" fill="#030302"/>
<path d="M35.995 44.6472C33.7486 45.1663 31.9383 44.6045 30.6193 42.8382C29.3756 41.1728 29.2518 39.3337 30.2572 37.5098C31.2312 35.7429 32.8006 34.881 34.8178 34.9397C37.1063 35.0062 39.0416 36.7204 39.4476 38.9689C39.9027 41.4894 38.6717 43.5662 35.995 44.6472Z" fill="#060603"/>
<path d="M70.8081 35.6001C72.197 37.8667 72.0993 40.0978 70.5975 41.8293C69.1814 43.462 66.9032 43.9995 64.9282 43.1668C62.9619 42.3378 61.7043 40.3299 61.9048 38.1879C62.0987 36.1165 63.2078 34.6367 65.1563 33.9304C67.3547 33.1334 69.2287 33.7752 70.8081 35.6001Z" fill="#060603"/>
</svg>
