<svg width="56" height="56" viewBox="0 0 56 56" fill="none" xmlns="http://www.w3.org/2000/svg">
<rect width="56" height="56" rx="13" fill="#F0F0F0"/>
<path fill-rule="evenodd" clip-rule="evenodd" d="M16.317 18.4005L28.1347 16.3167L29.8712 26.1648C30.4466 29.4282 28.2676 32.5401 25.0042 33.1155C21.7408 33.691 18.6289 31.5119 18.0535 28.2486L16.317 18.4005ZM14.3474 18.7478C14.1556 17.66 14.8819 16.6227 15.9697 16.4309L27.7874 14.3471C28.8752 14.1553 29.9125 14.8817 30.1043 15.9694L30.9543 20.79L40.2604 22.4309C41.3482 22.6227 42.0745 23.66 41.8827 24.7478L40.1462 34.5959C39.379 38.947 35.2297 41.8524 30.8786 41.0851C27.6853 40.5221 25.2707 38.1374 24.515 35.1882C20.4804 35.4725 16.8017 32.6671 16.0839 28.5959L14.3474 18.7478ZM26.4819 34.8007C27.0792 36.9627 28.8699 38.7001 31.2259 39.1155C34.4892 39.6909 37.6012 37.5119 38.1766 34.2486L39.9131 24.4005L31.3239 22.886L31.8408 25.8175C31.9187 26.2594 31.9588 26.6993 31.9633 27.1337C31.963 27.1092 31.9627 27.0847 31.9622 27.0602L32.3248 27.1242C32.2667 27.454 32.1273 27.7607 31.9231 28.0185C31.6089 31.1159 29.4951 33.8051 26.4819 34.8007ZM22.2829 23.4411C22.1908 22.9187 21.8949 22.4543 21.4604 22.1501C21.0259 21.8458 20.4884 21.7267 19.966 21.8188C19.4436 21.9109 18.9792 22.2067 18.675 22.6412C18.3707 23.0757 18.2516 23.6133 18.3437 24.1357L22.2829 23.4411ZM22.2416 29.6642C21.5898 29.2078 21.1461 28.5112 21.0079 27.7276L26.9168 26.6858C27.055 27.4693 26.8762 28.2757 26.4198 28.9274C25.9635 29.5792 25.2669 30.023 24.4833 30.1611C23.6997 30.2993 22.8934 30.1205 22.2416 29.6642ZM28.1918 22.3992C28.0997 21.8769 27.8038 21.4125 27.3693 21.1082C26.9348 20.804 26.3973 20.6848 25.8749 20.7769C25.3525 20.869 24.8881 21.1649 24.5839 21.5994C24.2796 22.0339 24.1605 22.5714 24.2526 23.0938L28.1918 22.3992ZM34.6258 28.9659C34.3215 28.5314 34.2024 27.9938 34.2945 27.4715L38.2337 28.166C38.1416 28.6884 37.8458 29.1528 37.4112 29.4571C36.9767 29.7613 36.4392 29.8805 35.9168 29.7884C35.3944 29.6963 34.93 29.4004 34.6258 28.9659ZM34.7013 36.682C34.8394 35.8985 34.6607 35.0921 34.2043 34.4403C33.7479 33.7886 33.0513 33.3448 32.2678 33.2067C31.4842 33.0685 30.6779 33.2473 30.0261 33.7036C29.3743 34.16 28.9306 34.8566 28.7924 35.6401L34.7013 36.682Z" fill="black"/>
</svg>
