<svg width="100" height="100" viewBox="0 0 100 100" fill="none" xmlns="http://www.w3.org/2000/svg">
<path d="M43.8889 6.111C58.4238 6.11093 72.8199 6.0962 87.2158 6.13577C88.5173 6.13935 89.7719 5.88116 91.0563 5.80846C94.0992 5.63624 97.0368 8.5591 96.9713 11.7483C96.8599 17.1618 96.7923 22.5844 96.9777 27.9939C97.3057 37.5654 96.9742 47.1431 97.2931 56.7053C97.509 63.1788 97.5659 69.6494 97.4256 76.1108C97.3343 80.3185 96.2288 84.3957 93.628 87.919C90.8036 91.7451 87.0335 94.3181 82.4642 95.1313C77.1115 96.0838 71.609 96.2863 66.6187 93.4189C59.1521 89.1286 56.5057 83.3168 58.1662 75.2499C58.9814 71.2899 61.7387 68.4127 65.0161 66.1195C67.7214 64.2266 70.7062 63.3989 74.0214 62.9116C77.4397 62.4092 80.6365 62.6944 83.9098 63.3408C84.6259 63.4822 85.2252 64.007 86.1322 63.9798C85.9519 59.5043 86.3083 55.0411 85.9361 50.5672C85.7257 48.0381 85.837 45.4809 85.8318 42.9363C85.8218 37.9371 85.7981 32.9375 85.8529 27.9388C85.8701 26.3618 85.538 24.8201 85.5636 23.2545C85.5764 22.4672 85.0944 22.5127 84.565 22.497C82.3518 22.4315 80.1651 22.8113 77.9458 22.7942C69.5222 22.7295 61.0976 22.7993 52.6736 22.765C49.3979 22.7516 46.14 23.2545 42.864 23.0491C41.8033 22.9825 41.9355 23.6644 41.9459 24.3076C42.0365 29.8977 42.161 35.4873 42.2126 41.0777C42.2579 45.984 42.0241 50.901 42.2727 55.7951C42.5804 61.8509 42.5121 67.9018 42.4629 73.9522C42.4305 77.9329 41.8856 81.9197 40.1025 85.5314C38.2899 89.2027 35.3351 91.7704 31.6623 93.6799C27.2358 95.9812 22.5075 95.8913 17.885 95.4475C13.1328 94.9913 9.17865 92.5688 6.01055 88.7809C2.64908 84.7617 2.22084 80.2252 3.12431 75.4514C3.78636 71.9533 6.06686 69.321 8.75128 67.062C12.9738 63.5085 17.9738 62.3519 23.3214 62.5391C25.5848 62.6184 27.9146 62.7385 30.0299 63.7707C31.02 64.2539 31.1062 63.8078 31.1276 62.9359C31.3082 55.5836 30.7391 48.243 30.8231 40.892C30.8791 35.9859 31.0542 31.0658 30.769 26.1757C30.4912 21.4127 30.838 16.65 30.5067 11.9096C30.2478 8.20593 33.5545 5.21171 37.1283 5.86134C39.3398 6.26334 41.545 6.00236 43.8889 6.111Z" fill="#0038BE"/>
</svg>
