<svg width="100" height="100" viewBox="0 0 100 100" fill="none" xmlns="http://www.w3.org/2000/svg">
<path d="M74.442 23.3337C69.6303 23.3311 64.957 23.3283 60.2837 23.3258C60.1912 23.3258 60.0957 23.3155 60.0066 23.334C59.27 23.4871 58.3659 22.495 57.8755 23.3216C57.5278 23.9075 57.752 24.8542 57.7794 25.6378C58.1353 35.845 57.8374 46.0617 58.1293 56.2639C58.3103 62.5906 58.4519 68.9211 58.2284 75.2293C58.083 79.3343 57.5134 83.5516 55.0021 87.1219C51.1933 92.5365 46.0756 95.5453 39.3626 95.5445C36.4008 95.5442 33.4276 95.7966 30.5339 94.7368C25.1178 92.7533 20.777 89.5315 19.2186 83.7901C17.3278 76.8239 19.1409 71.621 24.5519 67.0503C26.7846 65.1644 29.3339 63.7347 32.2235 63.2353C37.1156 62.3897 42.035 61.8932 46.9447 64.1662C46.9447 61.2912 47.0328 58.5494 46.9288 55.8149C46.555 45.9772 46.8873 36.1311 46.5934 26.299C46.4375 21.0833 46.5252 15.8731 46.4046 10.662C46.3676 9.06569 48.1137 7.01582 49.5788 6.35558C51.1485 5.64822 52.6509 5.74406 54.2266 6.09228C54.492 6.15093 54.78 6.11054 55.0576 6.11056C61.6749 6.11109 68.2922 6.10685 74.9094 6.11504C75.9347 6.11631 77.0119 6.11909 77.9759 6.02047C81.6505 5.64457 83.7925 9.07852 84.0894 11.9059C84.3404 14.2958 84.4366 16.7727 83.893 19.1899C83.3609 21.556 81.6508 22.8703 79.2476 23.0984C77.6885 23.2464 76.1395 23.3199 74.442 23.3337Z" fill="#ABFE3B"/>
</svg>
