<svg width="56" height="56" viewBox="0 0 56 56" fill="none" xmlns="http://www.w3.org/2000/svg">
<rect width="56" height="56" rx="13" fill="#F0F0F0"/>
<path fill-rule="evenodd" clip-rule="evenodd" d="M28.5831 16.1896C28.2346 15.9394 27.7654 15.9394 27.4169 16.1896L22.1082 19.9999H33.8918L28.5831 16.1896ZM26.2507 14.5648L18.6783 19.9999H16C14.8954 19.9999 14 20.8954 14 21.9999V39.9999C14 41.1045 14.8954 41.9999 16 41.9999H40C41.1046 41.9999 42 41.1045 42 39.9999V21.9999C42 20.8954 41.1046 19.9999 40 19.9999H37.3217L29.7493 14.5648C28.7038 13.8143 27.2962 13.8143 26.2507 14.5648ZM16 21.9999H40V37.3845L37.3351 31.2347C36.639 29.6283 34.361 29.6283 33.6649 31.2347L31.5719 36.0646L31.3511 35.5247C31.1066 34.9271 30.645 34.545 30.1229 34.3785C29.1976 34.0833 28.0823 34.4654 27.6489 35.5247L25.8182 39.9999H16V21.9999ZM24 28.4999C24 29.3283 23.3284 29.9999 22.5 29.9999C21.6716 29.9999 21 29.3283 21 28.4999C21 27.6715 21.6716 26.9999 22.5 26.9999C23.3284 26.9999 24 27.6715 24 28.4999ZM26 28.4999C26 30.4329 24.433 31.9999 22.5 31.9999C20.567 31.9999 19 30.4329 19 28.4999C19 26.5669 20.567 24.9999 22.5 24.9999C24.433 24.9999 26 26.5669 26 28.4999ZM29.5 36.282L31.0209 39.9998H27.9791L29.5 36.282ZM35.5 32.0299L38.9536 39.9998H32.0464L35.5 32.0299Z" fill="black"/>
</svg>
