<svg width="56" height="56" viewBox="0 0 56 56" fill="none" xmlns="http://www.w3.org/2000/svg">
<circle cx="28" cy="28" r="28" fill="#00C2FF"/>
<path fill-rule="evenodd" clip-rule="evenodd" d="M20 20H25.4737L25.4737 25.4737L20 25.4737V20ZM18 20C18 18.8954 18.8954 18 20 18H25.4737C26.5783 18 27.4737 18.8954 27.4737 20V25.4737C27.4737 26.5783 26.5783 27.4737 25.4737 27.4737H20C18.8954 27.4737 18 26.5783 18 25.4737V20ZM20 30.5263H25.4737L25.4737 36H20V30.5263ZM18 30.5263C18 29.4217 18.8954 28.5263 20 28.5263H25.4737C26.5783 28.5263 27.4737 29.4217 27.4737 30.5263V36C27.4737 37.1046 26.5783 38 25.4737 38H20C18.8954 38 18 37.1046 18 36V30.5263ZM36 20H30.5263V25.4737L36 25.4737V20ZM30.5263 18C29.4217 18 28.5263 18.8954 28.5263 20V25.4737C28.5263 26.5783 29.4217 27.4737 30.5263 27.4737H36C37.1046 27.4737 38 26.5783 38 25.4737V20C38 18.8954 37.1046 18 36 18H30.5263ZM30.5263 30.5263H36V36H30.5263V30.5263ZM28.5263 30.5263C28.5263 29.4217 29.4217 28.5263 30.5263 28.5263H36C37.1046 28.5263 38 29.4217 38 30.5263V36C38 37.1046 37.1046 38 36 38H30.5263C29.4217 38 28.5263 37.1046 28.5263 36V30.5263Z" fill="white"/>
</svg>
