<svg width="56" height="56" viewBox="0 0 56 56" fill="none" xmlns="http://www.w3.org/2000/svg">
<rect width="56" height="56" rx="13" fill="#F0F0F0"/>
<path fill-rule="evenodd" clip-rule="evenodd" d="M36.7681 25.6615L29.8385 18.7319C31.7799 17.4457 34.4213 17.6578 36.1317 19.3683C37.8422 21.0787 38.0543 23.7201 36.7681 25.6615ZM38.2029 27.0963C40.2585 24.3545 40.0395 20.4476 37.5459 17.9541C35.0523 15.4605 31.1455 15.2415 28.4037 17.2971L28.3536 17.2469C27.963 16.8564 27.3299 16.8564 26.9393 17.2469C26.5488 17.6375 26.5488 18.2706 26.9393 18.6612L26.9895 18.7113C26.2275 19.7277 25.778 20.9041 25.6411 22.1094L16.4724 32.5006C15.4243 33.6884 15.4804 35.4865 16.6006 36.6067L18.8932 38.8993C20.0134 40.0195 21.8115 40.0756 22.9994 39.0275L33.3906 29.8589C34.5958 29.722 35.7723 29.2725 36.7887 28.5105L36.8388 28.5607C37.2294 28.9512 37.8625 28.9512 38.2531 28.5607C38.6436 28.1701 38.6436 27.537 38.2531 27.1464L38.2029 27.0963ZM35.3539 27.0757L28.4243 20.1461C27.1381 22.0875 27.3502 24.7289 29.0607 26.4393C30.7711 28.1498 33.4125 28.3619 35.3539 27.0757ZM27.6464 27.8536C28.5087 28.7158 29.5399 29.3061 30.6334 29.6244L21.6761 37.5278C21.2802 37.8772 20.6808 37.8585 20.3074 37.4851L18.0148 35.1925C17.6414 34.8191 17.6227 34.2198 17.9721 33.8238L25.8756 24.8665C26.1939 25.9601 26.7842 26.9913 27.6464 27.8536Z" fill="black"/>
</svg>
