<svg width="100" height="100" viewBox="0 0 100 100" fill="none" xmlns="http://www.w3.org/2000/svg">
<path d="M49.4444 56.6839C49.6605 61.2791 49.2362 65.6435 47.4956 69.8067C47.095 70.7647 46.6421 71.7006 46.1432 72.8011C46.4928 72.704 46.7622 72.6416 47.0233 72.5543C47.8945 72.2632 48.7426 71.813 49.6357 71.693C53.2407 71.2082 55.3725 73.5956 55.497 76.9612C55.7214 83.027 54.4848 88.855 51.3503 94.1312C50.6302 95.3433 49.5373 96.4374 48.3875 97.2706C45.3984 99.4366 41.0411 98.7995 39.5833 94.8421C38.9787 93.201 39.1549 91.1699 40.6303 89.8608C43.2576 87.5296 43.6816 84.295 44.3937 81.2096C44.7975 79.4596 44.7046 77.5949 44.8211 75.9819C42.7625 77.9135 40.7761 79.9556 38.5945 81.7619C37.131 82.9735 35.3298 83.615 33.3395 83.6264C30.9596 83.64 28.5579 83.7629 26.558 82.1749C24.0253 80.1637 22.2701 77.6031 21.7054 74.3805C21.5259 73.3564 21.1817 72.8991 20.1513 73.0559C17.6015 73.444 15.8094 72.2461 13.968 70.5885C10.9838 67.9023 9.92221 64.6083 10.0145 60.7934C10.0658 58.674 9.62925 56.5152 10.7989 54.4846C13.3598 50.0391 16.7374 46.7874 21.9264 45.5029C26.0464 44.4831 30.1799 43.9556 34.3791 44.2059C37.6568 44.4012 41.0396 44.2505 44.0912 45.8432C46.4595 47.0793 48.6704 48.3748 48.6614 51.6168C48.6569 53.2597 49.167 54.9039 49.4444 56.6839Z" fill="#ABFF3B"/>
<path d="M58.8823 78.5874C57.7589 77.028 56.4481 75.6806 55.5846 74.0904C53.0696 69.4586 51.6005 64.5423 51.6127 59.1715C51.62 55.9495 52.0853 52.8448 52.7527 49.729C53.0858 48.1742 54.2785 47.3871 55.4419 46.6632C57.9506 45.1024 60.713 44.3854 63.7013 44.4205C65.9954 44.4474 68.3038 44.066 70.5851 44.2056C75.8851 44.5299 81.2223 45.1407 85.5014 48.6626C88.7301 51.32 91.3228 54.4942 91.1489 59.1592C91.0467 61.9013 90.9771 64.5436 89.793 67.1408C88.2712 70.4787 84.8517 73.0916 81.2929 73.0344C80.11 73.0155 79.6903 73.2767 79.3596 74.591C78.3204 78.7209 76.1796 82.2182 71.7437 83.3414C68.2301 84.231 64.7766 83.7267 61.82 81.3818C60.7854 80.5611 59.8695 79.5906 58.8823 78.5874Z" fill="#ABFF3B"/>
<path d="M10.8211 31.9422C10.5411 30.7981 10.0752 29.7705 10.0368 28.7271C9.92307 25.6356 9.74935 22.5132 11.1055 19.5797C12.4172 16.7424 14.6586 14.8036 17.3669 13.4598C18.1912 13.0509 19.3726 13.2961 20.3845 13.351C21.2786 13.3995 21.54 12.9755 21.6824 12.1875C22.2989 8.77659 23.9861 6.0072 26.8971 4.09123C29.8854 2.12443 33.1774 2.24801 36.2974 3.46831C40.7944 5.22712 43.5726 8.88901 45.8343 13.0068C49.0135 18.7952 49.9212 25.0282 49.3946 31.4945C49.2334 33.4745 48.847 35.5749 47.9744 37.3265C46.5749 40.1359 43.6737 41.2155 40.794 41.5955C37.1705 42.0738 33.47 42.2883 29.8194 42.156C25.8141 42.0109 21.855 41.2727 18.1672 39.4762C15.8008 38.3234 14.0071 36.584 12.5066 34.4846C11.934 33.6835 11.3884 32.8631 10.8211 31.9422Z" fill="#ABFF3B"/>
<path d="M90.6497 21.879C90.7708 24.7856 91.5348 27.8271 90.7237 30.3653C88.9448 35.932 84.8682 39.405 79.019 40.9018C74.8451 41.9699 70.6676 42.3673 66.4237 42.1923C62.7729 42.0418 59.0525 41.9726 55.7742 39.982C53.8893 38.8375 52.8248 37.356 52.3659 34.9586C51.7805 31.9003 51.595 28.8886 51.6899 25.8396C51.8824 19.6535 53.9514 14.0812 57.6739 9.15905C59.792 6.35839 62.2572 3.78127 65.85 3.09204C70.4132 2.21669 73.5416 2.43665 76.7745 6.60398C78.1579 8.38739 79.0703 10.3435 79.4813 12.5642C79.5369 12.8648 80.0365 13.245 80.3758 13.298C81.0986 13.4109 81.86 13.2621 82.5889 13.3536C83.2901 13.4416 84.1045 13.5157 84.6369 13.9098C87.3797 15.9396 90.0298 18.0838 90.6497 21.879Z" fill="#ABFF3B"/>
</svg>
