<svg width="56" height="56" viewBox="0 0 56 56" fill="none" xmlns="http://www.w3.org/2000/svg">
<rect width="56" height="56" rx="13" fill="#F0F0F0"/>
<path fill-rule="evenodd" clip-rule="evenodd" d="M14 15C14 14.4477 14.4477 14 15 14H41C41.5523 14 42 14.4477 42 15V24.4971C42 24.7557 41.8998 25.0042 41.7205 25.1905L41 25.9393V39C41 40.6569 39.6569 42 38 42H18C16.3431 42 15 40.6569 15 39V25.9393L14.2795 25.1905C14.1002 25.0042 14 24.7557 14 24.4971V15ZM34.0653 27.503C35.569 28.4205 37.4541 28.4712 39 27.6553V39C39 39.5523 38.5523 40 38 40H18C17.4477 40 17 39.5523 17 39V27.6553C18.546 28.4712 20.431 28.4205 21.9347 27.503C21.3402 28.5319 21 29.7262 21 31C21 34.866 24.134 38 28 38C31.866 38 35 34.866 35 31C35 29.7262 34.6598 28.5319 34.0653 27.503ZM28 24C26.9872 24 26.0247 24.2151 25.1555 24.6021L24.6667 24.0941V16H31.3333V24.0941L30.8445 24.6021C29.9753 24.2151 29.0128 24 28 24ZM22.6667 16H16V24.0941L17.1717 25.3116C18.3519 26.538 20.3148 26.538 21.495 25.3116L22.6667 24.0941V16ZM33.3333 16V24.0941L34.505 25.3116C35.6852 26.538 37.6481 26.538 38.8283 25.3116L40 24.0941V16H33.3333ZM28 36C30.7614 36 33 33.7614 33 31C33 28.2386 30.7614 26 28 26C25.2386 26 23 28.2386 23 31C23 33.7614 25.2386 36 28 36ZM29 28C29 27.4477 28.5523 27 28 27C27.4477 27 27 27.4477 27 28V31C27 31.5523 27.4477 32 28 32H30C30.5523 32 31 31.5523 31 31C31 30.4477 30.5523 30 30 30H29V28Z" fill="black"/>
</svg>
