<svg width="56" height="56" viewBox="0 0 56 56" fill="none" xmlns="http://www.w3.org/2000/svg">
<rect width="56" height="56" rx="13" fill="#F0F0F0"/>
<path fill-rule="evenodd" clip-rule="evenodd" d="M33 22C33 25.5729 30.5189 28 28 28C25.4811 28 23 25.5729 23 22C23 18.4271 25.4811 16 28 16C30.5189 16 33 18.4271 33 22ZM25.8232 29.6056C25.2135 32.2805 23.1202 34 21 34C18.4811 34 16 31.5729 16 28C16 24.4271 18.4811 22 21 22C21 25.5497 23.0229 28.5595 25.8232 29.6056ZM21.2197 20.0039C21.1467 20.0013 21.0735 20 21 20C17.134 20 14 23.5817 14 28C14 32.4183 17.134 36 21 36C21.7224 36 22.4192 35.8749 23.0749 35.6427L27.1778 41.5692C27.3664 41.8416 27.6775 42.0029 28.0088 42C28.34 41.9971 28.6483 41.8303 28.832 41.5547L34.5462 32.9835C34.6962 32.9944 34.8475 33 35 33C38.866 33 42 29.4183 42 25C42 20.5817 38.866 17 35 17C34.5126 17 34.0369 17.0569 33.5776 17.1653C32.2991 15.2419 30.2765 14 28 14C24.7371 14 21.9956 16.5515 21.2197 20.0039ZM34.5022 19.0314C34.8234 19.9493 35 20.9511 35 22C35 25.0481 33.5084 27.6981 31.3138 29.0486C32.2685 30.2806 33.6286 31 35 31C37.5189 31 40 28.5729 40 25C40 21.4271 37.5189 19 35 19C34.8337 19 34.6675 19.0106 34.5022 19.0314ZM29.4224 29.8347C29.2831 29.8676 29.1422 29.8957 29 29.919V37.6972L32.4858 32.4685C31.2616 31.9299 30.2032 31.0094 29.4224 29.8347ZM24.8451 34.6861L27 37.7987V32.123C26.4583 33.1505 25.7202 34.0274 24.8451 34.6861Z" fill="black"/>
</svg>
