<svg width="100" height="100" viewBox="0 0 100 100" fill="none" xmlns="http://www.w3.org/2000/svg">
<path d="M45.2347 63.7852C42.625 63.5449 40.0721 63.3902 37.8946 61.7118C35.4345 59.8155 33.6714 57.7454 33.827 54.3171C33.9582 51.4259 33.9333 48.563 35.5864 46.061C37.0959 43.7764 38.9726 41.7706 41.0419 39.9939C43.7617 37.6585 46.4223 35.2399 49.409 33.2297C49.9268 32.8812 50.4185 32.4938 51.0685 32.0171C49.571 31.8386 48.177 31.86 46.8058 31.7153C42.0691 31.2153 37.1839 26.9088 36.6003 22.1674C35.9145 16.596 38.0468 12.2092 41.4331 8.14886C43.3261 5.87891 45.6715 4.12966 48.0377 2.4073C48.3907 2.15036 48.8591 1.75303 49.2689 2.00794C49.7321 2.29606 49.2157 2.77119 49.1262 3.09751C48.6763 4.73801 48.9096 6.39289 48.9172 8.03333C48.9233 9.35374 50.2121 9.00753 50.9086 9.11019C52.1683 9.29589 53.3769 9.59967 54.5878 9.95792C55.0493 10.0945 55.5603 10.0814 55.8023 10.6071C55.3059 10.8284 55.2482 11.4675 54.6807 11.6741C52.3776 12.5123 50.5416 14.0427 49.1936 16.0252C48.3274 17.2991 47.29 18.6185 47.4849 20.447C47.22 23.3003 47.8371 25.8481 49.2592 28.2246C49.5973 28.7896 49.9837 29.2981 50.494 29.7019C51.8433 30.7691 53.0504 30.7447 54.3428 29.6098C56.2948 27.8957 57.7812 25.8818 58.2916 23.2695C58.366 22.8886 58.4933 22.5634 58.9032 22.2942C61.3708 23.0062 63.3731 24.1677 64.7703 26.4045C66.1149 28.5572 65.7757 33.6569 63.5837 35.7863C61.1538 38.147 58.5955 40.2978 55.8202 42.2336C52.4201 44.6051 49.1915 47.2006 46.3149 50.2083C45.65 50.9036 45.0845 51.6505 44.7514 52.6469C44.9142 53.0118 44.9006 53.2659 44.7263 53.5183C42.6102 56.5821 42.6204 59.3088 44.771 62.3517C45.0646 62.7671 45.4019 63.1497 45.2347 63.7852Z" fill="#00BBFF"/>
<path d="M59.9601 51.5147C62.5816 51.2089 64.9256 51.5249 66.8233 53.594C69.7558 56.7913 69.5003 61.3231 66.9095 64.6388C64.2029 68.1028 60.6113 70.4936 57.1003 72.9915C54.5781 74.7859 52.0108 76.5175 49.6516 78.5314C49.3101 78.8228 48.9189 79.0559 48.4755 79.3685C48.3185 79.4844 48.2383 79.5497 48.102 79.6688C48.0446 79.7209 48.0477 79.7158 48.0502 79.7141C47.9959 79.7812 47.9348 79.8461 47.818 79.9494C47.7664 79.992 47.7778 80 47.7743 79.994C47.7034 80.0673 47.6352 80.1458 47.5053 80.2723C47.4263 80.3814 47.3909 80.4289 47.2975 80.4828C46.2421 82.2309 44.8366 83.7175 44.2611 85.7221C43.7501 87.5017 43.945 89.0723 45.1363 90.4996C45.4348 90.8572 45.7173 91.2179 45.6273 91.8176C41.396 91.9339 36.4356 88.9018 35.5502 85.0862C34.6723 81.3025 35.2988 77.7011 37.9813 74.6612C41.1782 71.0384 44.9049 68.0335 48.8581 65.2877C49.5256 64.824 50.1455 64.2918 50.773 63.6957C50.8504 62.6201 51.7412 62.5563 52.3693 62.3391C55.338 61.3124 57.5528 59.4246 59.1067 56.7233C59.8562 55.4204 60.4826 54.0962 59.8728 52.54C59.7524 52.2325 59.751 51.908 59.9601 51.5147Z" fill="#00BAFF"/>
<path d="M59.8866 51.4125C60.9159 53.1936 60.8923 54.8508 59.8914 56.6552C57.8806 60.2801 54.8552 62.4389 50.84 63.5327C49.0004 63.9398 47.2232 63.9258 45.3052 63.8728C42.6774 61.2827 42.0071 58.2972 43.0648 54.8763C43.3523 53.9467 43.5193 53.0169 44.7528 52.836C46.5343 53.5056 48.2803 52.9217 50.0074 52.6197C53.2406 52.0545 56.4608 51.4215 59.8866 51.4125Z" fill="#0039BF"/>
<path d="M45.6789 91.9671C42.3105 88.4772 42.9262 83.6838 47.1542 80.5084C47.1223 81.1565 47.3932 81.3173 48.0491 81.4151C50.666 81.805 53.2401 82.3817 55.5635 83.7447C56.2392 84.1411 56.9095 84.529 57.0392 85.5071C55.421 85.5272 53.8432 85.6503 52.3294 86.1233C50.7391 86.6203 50.5535 87.1697 51.2528 88.6303C51.8816 89.9435 52.2907 91.3323 52.5074 92.7812C52.69 94.0017 51.99 94.1901 51.1869 93.7554C49.4763 92.8299 47.61 92.4884 45.6789 91.9671Z" fill="#0039BE"/>
<path d="M58.8749 22.2403C58.8413 25.7686 56.9459 28.2993 54.3378 30.3932C53.0515 31.426 51.6405 31.3787 50.3148 30.4019C48.1228 28.7867 46.2724 23.6093 46.962 20.9756C47.0003 20.829 47.1921 20.7226 47.4193 20.5684C49.0817 21.2991 50.7806 21.3252 52.4408 21.3624C54.5893 21.4105 56.7182 21.4453 58.8749 22.2403Z" fill="#0039BF"/>
<path d="M48.1254 79.7033C48.1062 79.6309 48.1678 79.5409 48.3148 79.4359C48.3355 79.5092 48.2709 79.5974 48.1254 79.7033Z" fill="#0039BE"/>
<path d="M47.8425 79.9818C47.8109 79.9063 47.8555 79.8205 47.9763 79.7236C48.0079 79.7988 47.9632 79.8852 47.8425 79.9818Z" fill="#0039BE"/>
<path d="M47.5273 80.2966C47.4949 80.2196 47.5454 80.1181 47.6833 80.0023C47.7172 80.0828 47.6636 80.1775 47.5273 80.2966Z" fill="#0039BE"/>
</svg>
