<svg width="100" height="100" viewBox="0 0 100 100" fill="none" xmlns="http://www.w3.org/2000/svg">
<path d="M9.47994 63.6426C9.47428 59.5261 9.29791 55.4007 9.51188 51.2956C9.71796 47.3423 10.5769 43.4468 12.0849 39.7719C13.3868 36.5992 14.7826 33.4375 16.4692 30.4592C17.7908 28.1252 19.4691 25.9438 21.2596 23.936C24.0628 20.7924 27.1237 17.9041 30.7822 15.7015C34.7033 13.3408 38.843 11.5326 43.3715 10.8843C46.3456 10.4585 49.4 10.1541 52.3853 10.337C58.773 10.7284 64.6189 12.8177 69.9839 16.4391C75.1524 19.9279 79.2653 24.3379 82.4614 29.6078C85.4088 34.4677 87.4093 39.7226 88.6428 45.2995C89.8707 50.8516 89.2693 56.4519 89.4356 62.0323C89.4458 62.3725 89.2679 62.7184 89.1147 63.2252C88.8421 63.3309 88.568 63.3386 88.4322 63.2054C86.9613 61.7623 85.217 60.9275 83.1712 60.6559C82.4967 60.5664 81.8474 60.2864 81.1899 59.9823C81.0019 57.2444 80.9585 54.5968 80.5925 51.9946C79.3701 43.3014 76.3661 35.3219 70.5131 28.6365C65.362 22.7527 59.0261 19.0645 51.0045 18.913C43.2172 18.766 36.8058 21.9986 31.4673 27.4096C23.1839 35.8055 19.5246 46.2391 18.4982 57.8206C18.4304 57.9488 18.449 58.0215 18.4995 58.1389C18.4676 58.2703 18.4618 58.3458 18.3753 58.4868C15.6562 59.5218 13.3612 60.9407 11.6773 63.2552C11.1238 64.0159 10.3187 64.1127 9.47994 63.6426Z" fill="#FE03EF"/>
<path d="M81.1866 60.0934C81.8474 60.2864 82.4967 60.5664 83.1712 60.6559C85.217 60.9275 86.9613 61.7623 88.4322 63.2054C88.568 63.3386 88.842 63.3309 89.1185 63.3417C89.6362 64.0001 90.0874 64.7054 90.5385 65.4107C91.2839 66.5763 91.8969 67.7166 93.5173 68.1066C95.8398 68.6657 97.0953 70.7609 97.2432 73.1159C97.5647 78.2345 94.694 81.3 90.6326 83.5819C89.8014 84.0489 89.1564 84.5306 88.6371 85.3402C86.8667 88.1004 84.0134 89.0831 80.9992 89.3756C79.1404 89.5559 77.2202 89.0508 75.3229 88.9237C74.8088 88.8892 74.2689 89.0788 73.7554 89.2189C68.9989 90.5166 64.2829 90.763 59.9441 88.0124C58.1525 86.8766 56.8697 85.1527 56.6163 82.8393C56.5634 82.3568 55.9708 81.7948 55.485 81.524C53.9693 80.679 53.266 79.1941 53.118 77.7306C52.7613 74.2037 52.8459 70.5842 55.053 67.5913C56.1374 66.1207 57.7567 64.9939 59.2767 63.9124C60.3343 63.1599 61.6029 62.7041 62.5869 61.5608C63.0703 61.3566 63.437 61.2679 63.7009 61.053C65.9633 59.2107 68.5464 58.2899 71.4587 58.2468C71.8641 58.2408 72.2677 58.1168 72.7619 58.1174C75.3249 58.6655 77.9286 58.6386 80.1427 60.1341C80.3754 60.2912 80.8332 60.115 81.1866 60.0934Z" fill="#E8E9EB"/>
<path d="M9.43132 63.7286C10.3187 64.1127 11.1238 64.0159 11.6773 63.2551C13.3612 60.9407 15.6562 59.5217 18.4793 58.5214C20.0077 58.4228 21.3435 58.2598 22.6715 58.3092C24.3213 58.3706 25.9647 58.6075 27.6955 58.836C28.8175 59.3745 29.8207 59.9538 30.8995 60.2925C32.7634 60.8778 34.6702 61.33 36.5688 61.7983C36.939 61.8896 37.3538 61.7998 37.7481 61.7936C39.0208 63.5178 40.2828 65.2502 41.5759 66.959C41.8182 67.2791 42.1654 67.7096 42.4976 67.7417C45.1695 67.9995 47.2289 70.7785 47.2799 73.4006C47.3762 78.3453 44.6564 81.3038 40.7403 83.5055C39.8242 84.0205 39.0882 84.5685 38.5435 85.4457C36.8741 88.134 34.0815 88.9792 31.2657 89.3474C29.3357 89.5997 27.3064 89.0479 25.3173 88.9231C24.8029 88.8908 24.2644 89.0824 23.7508 89.2219C18.9941 90.5141 14.2769 90.763 9.94003 88.0094C8.15063 86.8733 6.86207 85.1518 6.61594 82.8344C6.56483 82.3532 5.96831 81.7906 5.48163 81.5209C3.96086 80.6784 3.26679 79.1883 3.11811 77.726C2.75949 74.199 2.84103 70.5735 5.05597 67.5896C6.17054 66.0881 7.92022 65.058 9.43132 63.7286Z" fill="#E8E9EB"/>
<path d="M37.7547 61.6566C37.3538 61.7999 36.939 61.8896 36.5688 61.7983C34.6702 61.33 32.7634 60.8779 30.8995 60.2926C29.8207 59.9538 28.8175 59.3745 27.72 58.722C28.44 54.9334 28.9558 51.2433 30.0575 47.7372C32.1073 41.2133 35.5399 35.5034 41.2474 31.4462C47.6401 26.9019 55.4863 27.1366 61.5823 32.009C64.3346 34.209 66.4238 36.951 68.0662 40.0517C71.0479 45.6809 72.2965 51.7521 72.6722 58.0474C72.2678 58.1168 71.8641 58.2408 71.4587 58.2468C68.5464 58.2899 65.9633 59.2107 63.7009 61.053C63.437 61.2679 63.0703 61.3566 62.6452 61.4877C62.5779 56.0207 61.6919 50.7381 59.4154 45.764C58.2201 43.1522 56.567 40.9161 54.0045 39.3289C50.9306 37.4249 48.0492 39.0145 46.1509 40.6599C41.7944 44.436 39.9859 49.5884 38.6581 54.9339C38.1271 57.0715 38.0468 59.321 37.7547 61.6566Z" fill="#03BBFE"/>
<path d="M72.7619 58.1174C72.2965 51.7521 71.0479 45.6809 68.0662 40.0517C66.4238 36.951 64.3346 34.209 61.5822 32.009C55.4863 27.1366 47.6401 26.9019 41.2474 31.4462C35.5399 35.5034 32.1073 41.2133 30.0575 47.7372C28.9558 51.2432 28.44 54.9334 27.6353 58.6545C25.9647 58.6075 24.3213 58.3706 22.6715 58.3093C21.3435 58.2599 20.0077 58.4228 18.5713 58.4569C18.4618 58.3458 18.4676 58.2703 18.531 58.0922C18.6033 57.9109 18.5901 57.8403 18.5377 57.777C19.5246 46.239 23.1839 35.8055 31.4673 27.4095C36.8057 21.9986 43.2172 18.7659 51.0045 18.913C59.0261 19.0645 65.3619 22.7527 70.5131 28.6365C76.3661 35.3219 79.3701 43.3014 80.5925 51.9946C80.9585 54.5968 81.0019 57.2443 81.1898 59.9823C80.8332 60.115 80.3754 60.2912 80.1427 60.134C77.9286 58.6386 75.325 58.6655 72.7619 58.1174Z" fill="#ABFD40"/>
<path d="M18.4982 57.8206C18.5901 57.8402 18.6033 57.9109 18.5458 58.0355C18.449 58.0215 18.4304 57.9488 18.4982 57.8206Z" fill="#E8E9EB"/>
</svg>
