<svg width="100" height="100" viewBox="0 0 100 100" fill="none" xmlns="http://www.w3.org/2000/svg">
<path d="M15.2782 47.4905C13.1657 46.186 11.1576 44.8926 9.13594 43.6207C7.72239 42.7313 6.59045 40.77 8.20252 39.24C9.24746 38.2482 10.6934 37.6711 11.9792 36.9425C15.6639 34.8544 18.7723 32.1294 21.5601 28.9272C24.3464 25.7267 26.8338 22.3201 28.692 18.5566C30.1112 15.6823 30.949 12.5084 31.9023 9.4235C32.2311 8.35966 32.163 7.16391 32.2132 6.02563C32.2739 4.64949 33.019 3.6836 34.3738 3.37189C35.4939 3.11417 37.1376 3.67889 37.6782 4.71014C38.211 5.72676 38.3128 6.61035 38.1601 7.78357C37.9865 9.11732 38.3871 10.577 38.758 11.9212C40.0419 16.5735 42.3723 20.7086 45.0487 24.7046C47.2565 28.0008 49.7622 31.0234 52.7213 33.6155C54.4286 35.111 56.5023 36.1925 58.4372 37.4191C58.6871 37.5775 59.108 37.561 59.4261 37.5008C60.9837 37.2062 62.9216 38.6537 63.0661 39.8831C63.2668 41.5921 62.1226 42.8535 60.4024 43.66C57.6116 44.9683 54.843 46.4216 52.3198 48.1794C48.7962 50.634 46.1546 54.0488 43.7628 57.5611C40.5104 62.337 37.6604 67.3459 36.3701 73.0937C35.949 74.9693 34.6742 75.767 33.0037 75.554C31.6967 75.3873 30.8398 73.8827 30.5041 72.2668C29.9849 69.7684 29.2805 67.2813 28.3747 64.8957C26.0743 58.8376 22.2343 53.804 17.5627 49.3763C16.8684 48.7183 16.1071 48.1309 15.2782 47.4905Z" fill="#ABFF3B"/>
<path d="M75.2745 58.8175C75.2948 56.8494 76.4259 55.4175 78.1681 55.0392C79.3839 54.7752 81.1522 56.0046 81.3335 57.4734C82.0805 63.5236 85.3851 68.2321 89.2446 72.6216C90.0609 73.5499 91.2772 74.1818 92.4049 74.7651C93.5189 75.3412 94.3236 76.0294 94.4424 77.334C94.5703 78.7388 93.9132 79.8048 92.7267 80.3511C88.2803 82.3984 85.3087 85.9278 82.9333 90.0181C82.0518 91.536 81.518 93.2583 80.8528 94.8985C80.2422 96.4044 79.0253 97.3309 77.7263 97.2259C76.6498 97.139 74.9664 95.4569 74.7209 94.2512C73.6319 88.9029 70.3094 85.1233 66.0349 82.0579C65.3197 81.5451 64.3162 81.4534 63.5341 81.0112C60.782 79.4553 60.6024 77.2266 63.0635 75.632C66.0032 73.7274 68.2356 71.2038 70.2006 68.4493C72.2903 65.52 74.4459 62.5647 75.2745 58.8175Z" fill="#0038BE"/>
</svg>
