<svg width="100" height="100" viewBox="0 0 100 100" fill="none" xmlns="http://www.w3.org/2000/svg">
<path d="M23.0865 91.9445C19.1034 92.1037 15.273 89.5003 14.3387 85.7418C13.8537 83.7904 13.9471 81.5548 14.3327 79.5544C15.4151 73.9395 16.806 68.3845 18.0031 62.7905C18.1023 62.3271 17.7912 61.6266 17.4433 61.2419C15.66 59.27 13.7836 57.3828 11.9749 55.4335C9.35019 52.6047 7.29564 49.3574 6.40186 45.6288C5.51803 41.9418 5.94952 38.4057 8.99082 35.505C12.4798 32.1774 16.6148 30.5041 21.3077 30.0079C24.3446 29.6868 27.3915 29.4597 30.4287 29.1415C30.7452 29.1083 31.1517 28.8078 31.3056 28.519C33.299 24.7794 35.2317 21.0074 37.2276 17.2691C38.4189 15.0377 39.5317 12.763 41.3883 10.9423C43.8615 8.51701 49.9771 7.89845 51.6883 12.7584C51.7375 12.8982 51.9202 12.9942 52.0475 13.1027C55.2489 15.8314 57.5995 19.2009 59.4966 22.9229C60.4413 24.7764 61.4717 26.5862 62.4239 28.4359C63.3799 30.2927 64.13 30.6708 66.1725 30.2621C66.7939 30.1378 67.4283 30.0252 68.0592 30.0093C72.4825 29.8983 76.9069 29.7285 81.33 29.7528C84.067 29.7678 86.9102 29.6802 89.5151 30.3642C94.42 31.6522 96.1833 37.0214 92.7513 40.9347C90.251 43.7856 87.4833 46.4152 84.708 49.0076C82.3052 51.2519 79.7238 53.3051 77.1195 55.5298C78.1585 58.2672 79.2814 61.1831 80.3723 64.111C81.8019 67.9477 83.4047 71.765 83.8308 75.8633C84.3072 80.4457 83.6848 84.7487 79.2895 87.5121C77.4102 88.6936 75.3286 89.3355 73.1603 89.413C65.102 89.7012 57.3054 88.5633 50.1113 84.6489C48.3744 83.7039 46.716 82.6123 45.0404 81.5581C44.356 81.1276 43.9004 81.0393 43.1433 81.6597C38.6656 85.329 34.0073 88.7365 28.7129 91.194C26.9217 92.0254 25.0823 91.9339 23.0865 91.9445ZM46.4418 40.2799C44.2668 40.2792 42.09 40.3318 39.9178 40.2535C38.9489 40.2186 38.4581 40.6666 38.1616 41.4481C36.1833 46.6628 34.2432 51.8921 32.2359 57.0956C31.8132 58.1913 32.1182 58.8991 32.9929 59.5218C36.2362 61.8306 39.4596 64.1681 42.7368 66.4277C43.0793 66.6639 43.8759 66.6606 44.2112 66.4197C46.2726 64.9387 48.2713 63.3694 50.2731 61.8068C54.3011 58.6626 58.3177 55.5038 62.2589 52.4139C60.2198 48.7473 58.3098 45.278 56.3472 41.8387C56.1553 41.5024 55.661 41.1973 55.2699 41.1425C54.0522 40.9718 52.8145 40.9499 51.5885 40.8304C49.9586 40.6715 48.3324 40.475 46.4418 40.2799ZM59.5708 69.7293C57.872 70.9716 56.1732 72.2138 54.3412 73.5536C59.3966 76.5785 64.8049 77.7887 70.4704 78.0411C72.2759 78.1215 72.5496 77.6812 71.9641 75.9239C70.5627 71.718 69.1399 67.5192 67.6557 63.1094C64.9007 65.3585 62.3092 67.4741 59.5708 69.7293ZM19.9333 42.2364C19.2785 42.5696 18.6237 42.9028 17.7111 43.3672C19.2352 45.5556 20.6326 47.562 22.2099 49.8266C23.4103 46.7246 24.4674 43.9927 25.6724 40.8788C23.6792 41.3641 21.9181 41.793 19.9333 42.2364ZM27.4979 73.4371C27.0398 75.3239 26.5817 77.2108 26.0337 79.4677C28.7009 77.6713 31.0532 76.087 33.4428 74.4776C31.5943 73.1317 29.8789 71.8827 28.1117 70.596C27.8885 71.5467 27.6942 72.3738 27.4979 73.4371ZM48.1948 26.6671C47.7406 25.9396 47.2864 25.2121 46.7109 24.2903C45.794 26.009 44.9862 27.5233 44.16 29.072C46.041 29.072 47.7164 29.072 49.5759 29.072C49.1003 28.2263 48.7094 27.5311 48.1948 26.6671ZM72.3547 44.1662C73.4927 43.2156 74.6306 42.2649 75.7686 41.3142C75.7128 41.2299 75.6569 41.1457 75.6011 41.0614C73.6588 41.2013 71.7165 41.3412 69.55 41.4973C70.2384 42.6454 70.8479 43.662 71.457 44.6779C71.7353 44.5414 71.9741 44.4244 72.3547 44.1662Z" fill="#00BBFF"/>
</svg>
