<svg width="100" height="100" viewBox="0 0 100 100" fill="none" xmlns="http://www.w3.org/2000/svg">
<path d="M4.77637 39.1817C5.1408 34.4875 6.30984 30.0028 8.34648 25.7581C10.2325 21.8272 12.1409 17.8981 15.1817 14.6832C18.3898 11.2915 22.2119 8.91059 26.8607 8.13232C28.3906 7.87619 30.0118 7.93591 31.5647 8.1013C33.7548 8.33457 35.9482 8.68296 38.0896 9.19429C41.3445 9.97155 44.3982 11.3257 46.9428 13.5201C48.8534 15.1679 50.5263 17.0913 52.2325 18.8185C53.6001 16.5437 55.7067 14.5781 58.2286 13.1016C60.6151 11.7045 62.9972 10.1855 65.8325 9.86415C71.0362 9.27436 76.2938 8.57306 81.1279 11.41C84.0164 13.1052 86.6393 15.0266 88.2258 18.2499C89.6001 21.0424 90.9533 23.7794 91.4806 26.8644C91.6399 27.7969 91.8414 28.7255 91.9402 29.6646C92.4154 34.182 92.2708 38.6918 91.3714 43.1381C89.9218 50.3039 87.7629 57.225 83.6965 63.4075C81.5272 66.7058 79.5391 70.1541 77.079 73.2217C74.5171 76.4162 71.6597 79.4286 68.6086 82.1598C65.7336 84.7334 62.5007 86.9293 59.2994 89.1064C57.8492 90.0927 56.1557 90.9433 54.459 91.2756C53.0815 91.5453 51.525 91.0004 50.0645 90.728C44.9414 89.7723 40.329 87.4462 35.695 85.219C33.0841 83.9642 30.523 82.5799 28.0496 81.0731C26.1343 79.9063 24.3423 78.519 22.5814 77.1215C20.234 75.2585 17.7635 73.4846 15.7246 71.3164C13.397 68.8413 11.2005 66.2509 9.61815 63.0972C7.99853 59.8694 6.54657 56.6399 5.76837 53.1328C5.37861 51.3762 5.24708 49.5624 4.99654 47.5205C4.99626 46.3937 5.02268 45.52 4.99503 44.6481C4.93725 42.8255 4.85096 41.0038 4.77637 39.1817Z" fill="#FE00F0"/>
</svg>
