<svg width="342" height="48" viewBox="0 0 342 48" fill="none" xmlns="http://www.w3.org/2000/svg">
<rect width="342" height="48" rx="24" fill="black"/>
<path d="M122.224 29.328L126.144 18.576H127.504L131.392 29.328H129.92L128.832 26.304H124.64L123.568 29.328H122.224ZM126.688 20.464L125.056 25.104H128.4L126.736 20.464H126.688ZM132.682 31.712V21.376H133.978V22.016H134.058C134.522 21.568 135.37 21.216 136.346 21.216C138.058 21.216 139.594 22.128 139.594 25.072V25.28C139.594 28.192 138.218 29.44 136.01 29.44C135.13 29.44 134.458 29.184 134.042 28.928V31.712H132.682ZM135.898 28.336C137.338 28.336 138.202 27.552 138.202 25.472V25.12C138.202 22.976 137.402 22.384 135.978 22.384C135.098 22.384 134.378 22.672 134.042 22.928V27.792C134.378 28.08 135.098 28.336 135.898 28.336ZM141.322 31.712V21.376H142.618V22.016H142.698C143.162 21.568 144.01 21.216 144.986 21.216C146.698 21.216 148.234 22.128 148.234 25.072V25.28C148.234 28.192 146.858 29.44 144.65 29.44C143.77 29.44 143.098 29.184 142.682 28.928V31.712H141.322ZM144.538 28.336C145.978 28.336 146.842 27.552 146.842 25.472V25.12C146.842 22.976 146.042 22.384 144.618 22.384C143.738 22.384 143.018 22.672 142.682 22.928V27.792C143.018 28.08 143.738 28.336 144.538 28.336ZM149.995 29.328V17.872H151.371V29.328H149.995ZM156.884 29.472C154.372 29.472 153.092 27.92 153.092 25.472V25.232C153.092 22.464 154.74 21.216 156.596 21.216C158.772 21.216 159.812 22.48 159.812 24.976V25.744H154.5C154.596 27.632 155.524 28.304 157.108 28.304C158.164 28.304 158.852 28.08 159.572 27.696V28.704C159.108 29.056 158.196 29.472 156.884 29.472ZM156.532 22.32C155.636 22.32 154.628 22.816 154.5 24.64H158.372C158.372 22.976 157.732 22.32 156.532 22.32ZM173.638 29.344H161.014V28.192H166.582V25.984H162.534V21.488H170.662V19.44H162.502V18.288H172.07V22.64H163.942V24.832H172.454V25.984H168.006V28.192H173.638V29.344ZM191.685 29.344H179.061V28.192H184.629V25.984H180.581V21.488H188.709V19.44H180.549V18.288H190.117V22.64H181.989V24.832H190.501V25.984H186.053V28.192H191.685V29.344ZM205.529 29.088H192.905V27.936H205.529V29.088ZM203.849 18.72C203.849 21.904 203.609 25.12 203.193 26.928L201.817 26.752C202.169 25.408 202.409 21.968 202.409 19.856H194.217V18.72H203.849ZM218.221 27.296H216.797V17.136H218.221V27.296ZM218.541 30.688H209.021V26.336H210.445V29.552H218.541V30.688ZM210.797 18.08C212.957 18.08 214.541 19.568 214.541 21.568C214.541 23.584 212.957 24.976 210.797 24.976C208.653 24.976 207.069 23.584 207.069 21.584C207.069 19.568 208.653 18.08 210.797 18.08ZM210.797 19.296C209.485 19.296 208.557 20.256 208.557 21.552C208.557 22.832 209.485 23.792 210.797 23.792C212.173 23.792 213.037 22.848 213.037 21.568C213.037 20.24 212.173 19.296 210.797 19.296Z" fill="white"/>
<g clip-path="url(#clip0_1294_4692)">
<path d="M32.1268 19.7467C31.3368 19.7467 30.1143 18.8483 28.8268 18.88C27.1268 18.9025 25.5684 19.8658 24.6926 21.3917C22.9284 24.4542 24.2376 28.9775 25.9584 31.4667C26.8026 32.6783 27.7984 34.0417 29.1184 33.9992C30.3851 33.945 30.8601 33.1767 32.3976 33.1767C33.9234 33.1767 34.3559 33.9992 35.6976 33.9667C37.0618 33.945 37.9276 32.7333 38.7609 31.51C39.7243 30.1033 40.1243 28.7392 40.1459 28.6642C40.1134 28.6533 37.4943 27.6467 37.4626 24.6167C37.4409 22.0833 39.5293 20.8717 39.6268 20.8175C38.4359 19.0758 36.6076 18.8808 35.9684 18.8375C34.3018 18.7075 32.9059 19.7467 32.1268 19.7467ZM34.9418 17.1917C35.6443 16.3483 36.1084 15.1692 35.9793 14C34.9734 14.0433 33.7609 14.6708 33.0359 15.515C32.3859 16.2617 31.8243 17.4633 31.9751 18.61C33.0901 18.6967 34.2376 18.0367 34.9409 17.1925" fill="white"/>
</g>
<defs>
<clipPath id="clip0_1294_4692">
<rect width="20" height="20" fill="white" transform="translate(22 14)"/>
</clipPath>
</defs>
</svg>
