<svg width="342" height="48" viewBox="0 0 342 48" fill="none" xmlns="http://www.w3.org/2000/svg">
<rect width="342" height="48" rx="24" fill="#FEE500"/>
<path opacity="0.8" d="M114.974 18.608C114.958 23.52 112.51 26.672 108.574 28.656L107.694 27.568C109.902 26.56 111.662 25.056 112.654 23.088L108.174 23.568L107.918 22.32L113.118 21.92C113.326 21.264 113.454 20.56 113.486 19.808H108.478V18.608H114.974ZM118.51 17.136V22.768H120.734V23.936H118.51V31.12H117.102V17.136H118.51ZM128.817 18.608C128.801 23.52 126.353 26.672 122.417 28.656L121.537 27.568C123.745 26.56 125.505 25.056 126.497 23.088L122.017 23.568L121.761 22.32L126.961 21.92C127.169 21.264 127.297 20.56 127.329 19.808H122.321V18.608H128.817ZM132.353 17.136V22.768H134.577V23.936H132.353V31.12H130.945V17.136H132.353ZM146.917 21.888C146.917 24.064 145.141 25.568 142.405 25.776V28.144H148.021V29.312H135.397V28.144H140.981V25.76C138.261 25.536 136.501 24.064 136.501 21.888C136.501 19.552 138.581 18 141.701 18C144.853 18 146.917 19.552 146.917 21.888ZM145.461 21.888C145.461 20.304 143.973 19.184 141.701 19.184C139.445 19.184 137.957 20.304 137.957 21.888C137.957 23.488 139.445 24.592 141.701 24.592C143.957 24.592 145.461 23.488 145.461 21.888ZM160.281 23.248H156.249V24.56H161.865V25.712H149.241V24.56H154.825V23.248H150.825V17.712H160.217V18.848H152.249V19.92H160.009V21.024H152.249V22.112H160.281V23.248ZM150.697 26.848H160.217V31.184H158.793V28H150.697V26.848ZM175.709 29.232H163.085V28.08H175.709V29.232ZM174.445 21.952C174.445 24.112 172.429 25.584 169.389 25.584C166.365 25.584 164.365 24.112 164.365 21.952C164.365 19.808 166.365 18.32 169.389 18.32C172.445 18.32 174.445 19.808 174.445 21.952ZM173.005 21.952C173.005 20.544 171.581 19.568 169.389 19.568C167.229 19.568 165.805 20.544 165.805 21.952C165.805 23.376 167.229 24.336 169.389 24.336C171.565 24.336 173.005 23.376 173.005 21.952ZM189.552 29.344H176.928V28.192H182.496V25.984H178.448V21.488H186.576V19.44H178.416V18.288H187.984V22.64H179.856V24.832H188.368V25.984H183.92V28.192H189.552V29.344ZM207.599 29.344H194.975V28.192H200.543V25.984H196.495V21.488H204.623V19.44H196.463V18.288H206.031V22.64H197.903V24.832H206.415V25.984H201.967V28.192H207.599V29.344ZM221.443 29.088H208.819V27.936H221.443V29.088ZM219.763 18.72C219.763 21.904 219.523 25.12 219.107 26.928L217.731 26.752C218.083 25.408 218.323 21.968 218.323 19.856H210.131V18.72H219.763ZM234.135 27.296H232.711V17.136H234.135V27.296ZM234.455 30.688H224.935V26.336H226.359V29.552H234.455V30.688ZM226.711 18.08C228.871 18.08 230.455 19.568 230.455 21.568C230.455 23.584 228.871 24.976 226.711 24.976C224.567 24.976 222.983 23.584 222.983 21.584C222.983 19.568 224.567 18.08 226.711 18.08ZM226.711 19.296C225.399 19.296 224.471 20.256 224.471 21.552C224.471 22.832 225.399 23.792 226.711 23.792C228.087 23.792 228.951 22.848 228.951 21.568C228.951 20.24 228.087 19.296 226.711 19.296Z" fill="black"/>
<g clip-path="url(#clip0_1294_4699)">
<path d="M30.2239 31.0808C30.8003 31.1656 31.3938 31.2096 32 31.2096C37.5229 31.2096 42 27.5437 42 23.0214C42 18.4992 37.5229 14.8333 32 14.8333C26.4771 14.8333 22 18.4992 22 23.0214C22 25.9451 23.8717 28.5106 26.6873 29.9592C26.5341 30.5077 25.7029 33.4885 25.6698 33.7226C25.6698 33.7226 25.6499 33.8985 25.7597 33.9656C25.8694 34.0327 25.9985 33.9807 25.9985 33.9807C26.3131 33.9351 29.6469 31.5032 30.2239 31.0808Z" fill="black"/>
</g>
<defs>
<clipPath id="clip0_1294_4699">
<rect width="20" height="20" fill="white" transform="translate(22 14)"/>
</clipPath>
</defs>
</svg>
