<svg width="342" height="48" viewBox="0 0 342 48" fill="none" xmlns="http://www.w3.org/2000/svg">
<rect width="342" height="48" rx="24" fill="#03C75A"/>
<path d="M128.685 22.816H125.661V21.648H128.685V17.44H130.045V30.432H128.685V22.816ZM132.861 31.12H131.501V17.136H132.861V31.12ZM127.725 27.104C126.733 27.344 124.829 27.536 123.085 27.568H121.757V18.64H123.165V26.352C124.541 26.352 126.557 26.208 127.517 25.936L127.725 27.104ZM146.433 31.12H145.009V17.136H146.433V31.12ZM135.393 23.12C135.393 20.352 136.513 18.192 138.993 18.192C141.473 18.192 142.577 20.352 142.577 23.136C142.577 25.904 141.473 28.08 138.993 28.08C136.513 28.08 135.393 25.904 135.393 23.12ZM141.169 23.136C141.169 20.976 140.433 19.408 138.993 19.408C137.569 19.408 136.833 20.976 136.833 23.136C136.833 25.296 137.569 26.848 138.993 26.848C140.433 26.848 141.169 25.296 141.169 23.136ZM158.885 23.456H156.373V22.256H158.885V17.136H160.293V31.12H158.885V23.456ZM155.749 27.6H149.173V18.272H150.565V21.792H154.325V18.256H155.749V27.6ZM154.325 26.448V22.912H150.565V26.448H154.325ZM175.209 29.344H162.585V28.192H168.153V25.984H164.105V21.488H172.233V19.44H164.073V18.288H173.641V22.64H165.513V24.832H174.025V25.984H169.577V28.192H175.209V29.344ZM193.255 29.344H180.631V28.192H186.199V25.984H182.151V21.488H190.279V19.44H182.119V18.288H191.687V22.64H183.559V24.832H192.071V25.984H187.623V28.192H193.255V29.344ZM207.099 29.088H194.475V27.936H207.099V29.088ZM205.419 18.72C205.419 21.904 205.179 25.12 204.763 26.928L203.387 26.752C203.739 25.408 203.979 21.968 203.979 19.856H195.787V18.72H205.419ZM219.791 27.296H218.367V17.136H219.791V27.296ZM220.111 30.688H210.591V26.336H212.015V29.552H220.111V30.688ZM212.367 18.08C214.527 18.08 216.111 19.568 216.111 21.568C216.111 23.584 214.527 24.976 212.367 24.976C210.223 24.976 208.639 23.584 208.639 21.584C208.639 19.568 210.223 18.08 212.367 18.08ZM212.367 19.296C211.055 19.296 210.127 20.256 210.127 21.552C210.127 22.832 211.055 23.792 212.367 23.792C213.743 23.792 214.607 22.848 214.607 21.568C214.607 20.24 213.743 19.296 212.367 19.296Z" fill="white"/>
<g clip-path="url(#clip0_1294_4685)">
<path d="M35.5608 24.7042L28.1467 14H22V34H28.4383V23.2967L35.8533 34H42V14H35.5608V24.7042Z" fill="white"/>
</g>
<defs>
<clipPath id="clip0_1294_4685">
<rect width="20" height="20" fill="white" transform="translate(22 14)"/>
</clipPath>
</defs>
</svg>
